<mxfile host="65bd71144e">
    <diagram id="w9eKzY9bWTthkub-cFA_" name="第 1 页">
        <mxGraphModel dx="1238" dy="719" grid="1" gridSize="10" guides="1" tooltips="1" connect="1" arrows="1" fold="1" page="1" pageScale="1" pageWidth="827" pageHeight="1169" math="0" shadow="0">
            <root>
                <mxCell id="0"/>
                <mxCell id="1" parent="0"/>
                <mxCell id="204" value="" style="group" vertex="1" connectable="0" parent="1">
                    <mxGeometry x="210" y="800" width="820" height="540" as="geometry"/>
                </mxCell>
                <mxCell id="31" value="" style="group" vertex="1" connectable="0" parent="204">
                    <mxGeometry x="360" width="390" height="50" as="geometry"/>
                </mxCell>
                <mxCell id="29" value="" style="group" vertex="1" connectable="0" parent="31">
                    <mxGeometry width="320" height="50" as="geometry"/>
                </mxCell>
                <mxCell id="10" value="0" style="rounded=0;whiteSpace=wrap;html=1;" vertex="1" parent="29">
                    <mxGeometry width="20" height="50" as="geometry"/>
                </mxCell>
                <mxCell id="12" value="1" style="rounded=0;whiteSpace=wrap;html=1;" vertex="1" parent="29">
                    <mxGeometry x="20" width="20" height="50" as="geometry"/>
                </mxCell>
                <mxCell id="13" value="2" style="rounded=0;whiteSpace=wrap;html=1;" vertex="1" parent="29">
                    <mxGeometry x="40" width="20" height="50" as="geometry"/>
                </mxCell>
                <mxCell id="14" value="3" style="rounded=0;whiteSpace=wrap;html=1;" vertex="1" parent="29">
                    <mxGeometry x="60" width="20" height="50" as="geometry"/>
                </mxCell>
                <mxCell id="15" value="4" style="rounded=0;whiteSpace=wrap;html=1;" vertex="1" parent="29">
                    <mxGeometry x="80" width="20" height="50" as="geometry"/>
                </mxCell>
                <mxCell id="16" value="5" style="rounded=0;whiteSpace=wrap;html=1;" vertex="1" parent="29">
                    <mxGeometry x="100" width="20" height="50" as="geometry"/>
                </mxCell>
                <mxCell id="17" value="6" style="rounded=0;whiteSpace=wrap;html=1;" vertex="1" parent="29">
                    <mxGeometry x="120" width="20" height="50" as="geometry"/>
                </mxCell>
                <mxCell id="18" value="7" style="rounded=0;whiteSpace=wrap;html=1;" vertex="1" parent="29">
                    <mxGeometry x="140" width="20" height="50" as="geometry"/>
                </mxCell>
                <mxCell id="19" value="8" style="rounded=0;whiteSpace=wrap;html=1;" vertex="1" parent="29">
                    <mxGeometry x="160" width="20" height="50" as="geometry"/>
                </mxCell>
                <mxCell id="20" value="9" style="rounded=0;whiteSpace=wrap;html=1;" vertex="1" parent="29">
                    <mxGeometry x="180" width="20" height="50" as="geometry"/>
                </mxCell>
                <mxCell id="22" value="10" style="rounded=0;whiteSpace=wrap;html=1;" vertex="1" parent="29">
                    <mxGeometry x="200" width="20" height="50" as="geometry"/>
                </mxCell>
                <mxCell id="23" value="11" style="rounded=0;whiteSpace=wrap;html=1;" vertex="1" parent="29">
                    <mxGeometry x="220" width="20" height="50" as="geometry"/>
                </mxCell>
                <mxCell id="24" value="12" style="rounded=0;whiteSpace=wrap;html=1;" vertex="1" parent="29">
                    <mxGeometry x="240" width="20" height="50" as="geometry"/>
                </mxCell>
                <mxCell id="26" value="13" style="rounded=0;whiteSpace=wrap;html=1;" vertex="1" parent="29">
                    <mxGeometry x="260" width="20" height="50" as="geometry"/>
                </mxCell>
                <mxCell id="27" value="14" style="rounded=0;whiteSpace=wrap;html=1;" vertex="1" parent="29">
                    <mxGeometry x="280" width="20" height="50" as="geometry"/>
                </mxCell>
                <mxCell id="28" value="15" style="rounded=0;whiteSpace=wrap;html=1;" vertex="1" parent="29">
                    <mxGeometry x="300" width="20" height="50" as="geometry"/>
                </mxCell>
                <mxCell id="30" value="128 bit (16byte)" style="text;html=1;strokeColor=none;fillColor=none;align=center;verticalAlign=middle;whiteSpace=wrap;rounded=0;" vertex="1" parent="31">
                    <mxGeometry x="330" y="10" width="60" height="30" as="geometry"/>
                </mxCell>
                <mxCell id="34" value="" style="group" vertex="1" connectable="0" parent="204">
                    <mxGeometry x="360" y="70" width="390" height="50" as="geometry"/>
                </mxCell>
                <mxCell id="35" value="" style="group" vertex="1" connectable="0" parent="34">
                    <mxGeometry width="320" height="50" as="geometry"/>
                </mxCell>
                <mxCell id="36" value="0" style="rounded=0;whiteSpace=wrap;html=1;" vertex="1" parent="35">
                    <mxGeometry width="20" height="50" as="geometry"/>
                </mxCell>
                <mxCell id="37" value="1" style="rounded=0;whiteSpace=wrap;html=1;" vertex="1" parent="35">
                    <mxGeometry x="20" width="20" height="50" as="geometry"/>
                </mxCell>
                <mxCell id="38" value="2" style="rounded=0;whiteSpace=wrap;html=1;" vertex="1" parent="35">
                    <mxGeometry x="40" width="20" height="50" as="geometry"/>
                </mxCell>
                <mxCell id="39" value="3" style="rounded=0;whiteSpace=wrap;html=1;" vertex="1" parent="35">
                    <mxGeometry x="60" width="20" height="50" as="geometry"/>
                </mxCell>
                <mxCell id="40" value="4" style="rounded=0;whiteSpace=wrap;html=1;" vertex="1" parent="35">
                    <mxGeometry x="80" width="20" height="50" as="geometry"/>
                </mxCell>
                <mxCell id="41" value="5" style="rounded=0;whiteSpace=wrap;html=1;" vertex="1" parent="35">
                    <mxGeometry x="100" width="20" height="50" as="geometry"/>
                </mxCell>
                <mxCell id="42" value="6" style="rounded=0;whiteSpace=wrap;html=1;" vertex="1" parent="35">
                    <mxGeometry x="120" width="20" height="50" as="geometry"/>
                </mxCell>
                <mxCell id="43" value="7" style="rounded=0;whiteSpace=wrap;html=1;" vertex="1" parent="35">
                    <mxGeometry x="140" width="20" height="50" as="geometry"/>
                </mxCell>
                <mxCell id="44" value="8" style="rounded=0;whiteSpace=wrap;html=1;" vertex="1" parent="35">
                    <mxGeometry x="160" width="20" height="50" as="geometry"/>
                </mxCell>
                <mxCell id="45" value="9" style="rounded=0;whiteSpace=wrap;html=1;" vertex="1" parent="35">
                    <mxGeometry x="180" width="20" height="50" as="geometry"/>
                </mxCell>
                <mxCell id="46" value="10" style="rounded=0;whiteSpace=wrap;html=1;" vertex="1" parent="35">
                    <mxGeometry x="200" width="20" height="50" as="geometry"/>
                </mxCell>
                <mxCell id="47" value="11" style="rounded=0;whiteSpace=wrap;html=1;" vertex="1" parent="35">
                    <mxGeometry x="220" width="20" height="50" as="geometry"/>
                </mxCell>
                <mxCell id="48" value="12" style="rounded=0;whiteSpace=wrap;html=1;" vertex="1" parent="35">
                    <mxGeometry x="240" width="20" height="50" as="geometry"/>
                </mxCell>
                <mxCell id="49" value="13" style="rounded=0;whiteSpace=wrap;html=1;" vertex="1" parent="35">
                    <mxGeometry x="260" width="20" height="50" as="geometry"/>
                </mxCell>
                <mxCell id="50" value="14" style="rounded=0;whiteSpace=wrap;html=1;" vertex="1" parent="35">
                    <mxGeometry x="280" width="20" height="50" as="geometry"/>
                </mxCell>
                <mxCell id="51" value="15" style="rounded=0;whiteSpace=wrap;html=1;" vertex="1" parent="35">
                    <mxGeometry x="300" width="20" height="50" as="geometry"/>
                </mxCell>
                <mxCell id="52" value="128 bit (16byte)" style="text;html=1;strokeColor=none;fillColor=none;align=center;verticalAlign=middle;whiteSpace=wrap;rounded=0;" vertex="1" parent="34">
                    <mxGeometry x="330" y="10" width="60" height="30" as="geometry"/>
                </mxCell>
                <mxCell id="54" value="" style="group" vertex="1" connectable="0" parent="204">
                    <mxGeometry x="360" y="140" width="390" height="50" as="geometry"/>
                </mxCell>
                <mxCell id="55" value="" style="group" vertex="1" connectable="0" parent="54">
                    <mxGeometry width="320" height="50" as="geometry"/>
                </mxCell>
                <mxCell id="56" value="0" style="rounded=0;whiteSpace=wrap;html=1;" vertex="1" parent="55">
                    <mxGeometry width="20" height="50" as="geometry"/>
                </mxCell>
                <mxCell id="57" value="1" style="rounded=0;whiteSpace=wrap;html=1;" vertex="1" parent="55">
                    <mxGeometry x="20" width="20" height="50" as="geometry"/>
                </mxCell>
                <mxCell id="58" value="2" style="rounded=0;whiteSpace=wrap;html=1;" vertex="1" parent="55">
                    <mxGeometry x="40" width="20" height="50" as="geometry"/>
                </mxCell>
                <mxCell id="59" value="3" style="rounded=0;whiteSpace=wrap;html=1;" vertex="1" parent="55">
                    <mxGeometry x="60" width="20" height="50" as="geometry"/>
                </mxCell>
                <mxCell id="60" value="4" style="rounded=0;whiteSpace=wrap;html=1;" vertex="1" parent="55">
                    <mxGeometry x="80" width="20" height="50" as="geometry"/>
                </mxCell>
                <mxCell id="61" value="5" style="rounded=0;whiteSpace=wrap;html=1;" vertex="1" parent="55">
                    <mxGeometry x="100" width="20" height="50" as="geometry"/>
                </mxCell>
                <mxCell id="62" value="6" style="rounded=0;whiteSpace=wrap;html=1;" vertex="1" parent="55">
                    <mxGeometry x="120" width="20" height="50" as="geometry"/>
                </mxCell>
                <mxCell id="63" value="7" style="rounded=0;whiteSpace=wrap;html=1;" vertex="1" parent="55">
                    <mxGeometry x="140" width="20" height="50" as="geometry"/>
                </mxCell>
                <mxCell id="64" value="8" style="rounded=0;whiteSpace=wrap;html=1;" vertex="1" parent="55">
                    <mxGeometry x="160" width="20" height="50" as="geometry"/>
                </mxCell>
                <mxCell id="65" value="9" style="rounded=0;whiteSpace=wrap;html=1;" vertex="1" parent="55">
                    <mxGeometry x="180" width="20" height="50" as="geometry"/>
                </mxCell>
                <mxCell id="66" value="10" style="rounded=0;whiteSpace=wrap;html=1;" vertex="1" parent="55">
                    <mxGeometry x="200" width="20" height="50" as="geometry"/>
                </mxCell>
                <mxCell id="67" value="11" style="rounded=0;whiteSpace=wrap;html=1;" vertex="1" parent="55">
                    <mxGeometry x="220" width="20" height="50" as="geometry"/>
                </mxCell>
                <mxCell id="68" value="12" style="rounded=0;whiteSpace=wrap;html=1;" vertex="1" parent="55">
                    <mxGeometry x="240" width="20" height="50" as="geometry"/>
                </mxCell>
                <mxCell id="69" value="13" style="rounded=0;whiteSpace=wrap;html=1;" vertex="1" parent="55">
                    <mxGeometry x="260" width="20" height="50" as="geometry"/>
                </mxCell>
                <mxCell id="70" value="14" style="rounded=0;whiteSpace=wrap;html=1;" vertex="1" parent="55">
                    <mxGeometry x="280" width="20" height="50" as="geometry"/>
                </mxCell>
                <mxCell id="71" value="15" style="rounded=0;whiteSpace=wrap;html=1;" vertex="1" parent="55">
                    <mxGeometry x="300" width="20" height="50" as="geometry"/>
                </mxCell>
                <mxCell id="72" value="128 bit (16byte)" style="text;html=1;strokeColor=none;fillColor=none;align=center;verticalAlign=middle;whiteSpace=wrap;rounded=0;" vertex="1" parent="54">
                    <mxGeometry x="330" y="10" width="60" height="30" as="geometry"/>
                </mxCell>
                <mxCell id="73" value="" style="group" vertex="1" connectable="0" parent="204">
                    <mxGeometry x="360" y="210" width="390" height="50" as="geometry"/>
                </mxCell>
                <mxCell id="74" value="" style="group" vertex="1" connectable="0" parent="73">
                    <mxGeometry width="320" height="50" as="geometry"/>
                </mxCell>
                <mxCell id="75" value="0" style="rounded=0;whiteSpace=wrap;html=1;" vertex="1" parent="74">
                    <mxGeometry width="20" height="50" as="geometry"/>
                </mxCell>
                <mxCell id="76" value="1" style="rounded=0;whiteSpace=wrap;html=1;" vertex="1" parent="74">
                    <mxGeometry x="20" width="20" height="50" as="geometry"/>
                </mxCell>
                <mxCell id="77" value="2" style="rounded=0;whiteSpace=wrap;html=1;" vertex="1" parent="74">
                    <mxGeometry x="40" width="20" height="50" as="geometry"/>
                </mxCell>
                <mxCell id="78" value="3" style="rounded=0;whiteSpace=wrap;html=1;" vertex="1" parent="74">
                    <mxGeometry x="60" width="20" height="50" as="geometry"/>
                </mxCell>
                <mxCell id="79" value="4" style="rounded=0;whiteSpace=wrap;html=1;" vertex="1" parent="74">
                    <mxGeometry x="80" width="20" height="50" as="geometry"/>
                </mxCell>
                <mxCell id="80" value="5" style="rounded=0;whiteSpace=wrap;html=1;" vertex="1" parent="74">
                    <mxGeometry x="100" width="20" height="50" as="geometry"/>
                </mxCell>
                <mxCell id="81" value="6" style="rounded=0;whiteSpace=wrap;html=1;" vertex="1" parent="74">
                    <mxGeometry x="120" width="20" height="50" as="geometry"/>
                </mxCell>
                <mxCell id="82" value="7" style="rounded=0;whiteSpace=wrap;html=1;" vertex="1" parent="74">
                    <mxGeometry x="140" width="20" height="50" as="geometry"/>
                </mxCell>
                <mxCell id="83" value="8" style="rounded=0;whiteSpace=wrap;html=1;" vertex="1" parent="74">
                    <mxGeometry x="160" width="20" height="50" as="geometry"/>
                </mxCell>
                <mxCell id="84" value="9" style="rounded=0;whiteSpace=wrap;html=1;" vertex="1" parent="74">
                    <mxGeometry x="180" width="20" height="50" as="geometry"/>
                </mxCell>
                <mxCell id="85" value="10" style="rounded=0;whiteSpace=wrap;html=1;" vertex="1" parent="74">
                    <mxGeometry x="200" width="20" height="50" as="geometry"/>
                </mxCell>
                <mxCell id="86" value="11" style="rounded=0;whiteSpace=wrap;html=1;" vertex="1" parent="74">
                    <mxGeometry x="220" width="20" height="50" as="geometry"/>
                </mxCell>
                <mxCell id="87" value="12" style="rounded=0;whiteSpace=wrap;html=1;" vertex="1" parent="74">
                    <mxGeometry x="240" width="20" height="50" as="geometry"/>
                </mxCell>
                <mxCell id="88" value="13" style="rounded=0;whiteSpace=wrap;html=1;" vertex="1" parent="74">
                    <mxGeometry x="260" width="20" height="50" as="geometry"/>
                </mxCell>
                <mxCell id="89" value="14" style="rounded=0;whiteSpace=wrap;html=1;" vertex="1" parent="74">
                    <mxGeometry x="280" width="20" height="50" as="geometry"/>
                </mxCell>
                <mxCell id="90" value="15" style="rounded=0;whiteSpace=wrap;html=1;" vertex="1" parent="74">
                    <mxGeometry x="300" width="20" height="50" as="geometry"/>
                </mxCell>
                <mxCell id="91" value="128 bit (16byte)" style="text;html=1;strokeColor=none;fillColor=none;align=center;verticalAlign=middle;whiteSpace=wrap;rounded=0;" vertex="1" parent="73">
                    <mxGeometry x="330" y="10" width="60" height="30" as="geometry"/>
                </mxCell>
                <mxCell id="93" value="" style="group" vertex="1" connectable="0" parent="204">
                    <mxGeometry x="360" y="280" width="390" height="50" as="geometry"/>
                </mxCell>
                <mxCell id="94" value="" style="group" vertex="1" connectable="0" parent="93">
                    <mxGeometry width="320" height="50" as="geometry"/>
                </mxCell>
                <mxCell id="95" value="0" style="rounded=0;whiteSpace=wrap;html=1;" vertex="1" parent="94">
                    <mxGeometry width="20" height="50" as="geometry"/>
                </mxCell>
                <mxCell id="96" value="1" style="rounded=0;whiteSpace=wrap;html=1;" vertex="1" parent="94">
                    <mxGeometry x="20" width="20" height="50" as="geometry"/>
                </mxCell>
                <mxCell id="97" value="2" style="rounded=0;whiteSpace=wrap;html=1;" vertex="1" parent="94">
                    <mxGeometry x="40" width="20" height="50" as="geometry"/>
                </mxCell>
                <mxCell id="98" value="3" style="rounded=0;whiteSpace=wrap;html=1;" vertex="1" parent="94">
                    <mxGeometry x="60" width="20" height="50" as="geometry"/>
                </mxCell>
                <mxCell id="99" value="4" style="rounded=0;whiteSpace=wrap;html=1;" vertex="1" parent="94">
                    <mxGeometry x="80" width="20" height="50" as="geometry"/>
                </mxCell>
                <mxCell id="100" value="5" style="rounded=0;whiteSpace=wrap;html=1;" vertex="1" parent="94">
                    <mxGeometry x="100" width="20" height="50" as="geometry"/>
                </mxCell>
                <mxCell id="101" value="6" style="rounded=0;whiteSpace=wrap;html=1;" vertex="1" parent="94">
                    <mxGeometry x="120" width="20" height="50" as="geometry"/>
                </mxCell>
                <mxCell id="102" value="7" style="rounded=0;whiteSpace=wrap;html=1;" vertex="1" parent="94">
                    <mxGeometry x="140" width="20" height="50" as="geometry"/>
                </mxCell>
                <mxCell id="103" value="8" style="rounded=0;whiteSpace=wrap;html=1;" vertex="1" parent="94">
                    <mxGeometry x="160" width="20" height="50" as="geometry"/>
                </mxCell>
                <mxCell id="104" value="9" style="rounded=0;whiteSpace=wrap;html=1;" vertex="1" parent="94">
                    <mxGeometry x="180" width="20" height="50" as="geometry"/>
                </mxCell>
                <mxCell id="105" value="10" style="rounded=0;whiteSpace=wrap;html=1;" vertex="1" parent="94">
                    <mxGeometry x="200" width="20" height="50" as="geometry"/>
                </mxCell>
                <mxCell id="106" value="11" style="rounded=0;whiteSpace=wrap;html=1;" vertex="1" parent="94">
                    <mxGeometry x="220" width="20" height="50" as="geometry"/>
                </mxCell>
                <mxCell id="107" value="12" style="rounded=0;whiteSpace=wrap;html=1;" vertex="1" parent="94">
                    <mxGeometry x="240" width="20" height="50" as="geometry"/>
                </mxCell>
                <mxCell id="108" value="13" style="rounded=0;whiteSpace=wrap;html=1;" vertex="1" parent="94">
                    <mxGeometry x="260" width="20" height="50" as="geometry"/>
                </mxCell>
                <mxCell id="109" value="14" style="rounded=0;whiteSpace=wrap;html=1;" vertex="1" parent="94">
                    <mxGeometry x="280" width="20" height="50" as="geometry"/>
                </mxCell>
                <mxCell id="110" value="15" style="rounded=0;whiteSpace=wrap;html=1;" vertex="1" parent="94">
                    <mxGeometry x="300" width="20" height="50" as="geometry"/>
                </mxCell>
                <mxCell id="111" value="128 bit (16byte)" style="text;html=1;strokeColor=none;fillColor=none;align=center;verticalAlign=middle;whiteSpace=wrap;rounded=0;" vertex="1" parent="93">
                    <mxGeometry x="330" y="10" width="60" height="30" as="geometry"/>
                </mxCell>
                <mxCell id="112" value="" style="group" vertex="1" connectable="0" parent="204">
                    <mxGeometry x="360" y="350" width="390" height="50" as="geometry"/>
                </mxCell>
                <mxCell id="113" value="" style="group" vertex="1" connectable="0" parent="112">
                    <mxGeometry width="320" height="50" as="geometry"/>
                </mxCell>
                <mxCell id="114" value="0" style="rounded=0;whiteSpace=wrap;html=1;" vertex="1" parent="113">
                    <mxGeometry width="20" height="50" as="geometry"/>
                </mxCell>
                <mxCell id="115" value="1" style="rounded=0;whiteSpace=wrap;html=1;" vertex="1" parent="113">
                    <mxGeometry x="20" width="20" height="50" as="geometry"/>
                </mxCell>
                <mxCell id="116" value="2" style="rounded=0;whiteSpace=wrap;html=1;" vertex="1" parent="113">
                    <mxGeometry x="40" width="20" height="50" as="geometry"/>
                </mxCell>
                <mxCell id="117" value="3" style="rounded=0;whiteSpace=wrap;html=1;" vertex="1" parent="113">
                    <mxGeometry x="60" width="20" height="50" as="geometry"/>
                </mxCell>
                <mxCell id="118" value="4" style="rounded=0;whiteSpace=wrap;html=1;" vertex="1" parent="113">
                    <mxGeometry x="80" width="20" height="50" as="geometry"/>
                </mxCell>
                <mxCell id="119" value="5" style="rounded=0;whiteSpace=wrap;html=1;" vertex="1" parent="113">
                    <mxGeometry x="100" width="20" height="50" as="geometry"/>
                </mxCell>
                <mxCell id="120" value="6" style="rounded=0;whiteSpace=wrap;html=1;" vertex="1" parent="113">
                    <mxGeometry x="120" width="20" height="50" as="geometry"/>
                </mxCell>
                <mxCell id="121" value="7" style="rounded=0;whiteSpace=wrap;html=1;" vertex="1" parent="113">
                    <mxGeometry x="140" width="20" height="50" as="geometry"/>
                </mxCell>
                <mxCell id="122" value="8" style="rounded=0;whiteSpace=wrap;html=1;" vertex="1" parent="113">
                    <mxGeometry x="160" width="20" height="50" as="geometry"/>
                </mxCell>
                <mxCell id="123" value="9" style="rounded=0;whiteSpace=wrap;html=1;" vertex="1" parent="113">
                    <mxGeometry x="180" width="20" height="50" as="geometry"/>
                </mxCell>
                <mxCell id="124" value="10" style="rounded=0;whiteSpace=wrap;html=1;" vertex="1" parent="113">
                    <mxGeometry x="200" width="20" height="50" as="geometry"/>
                </mxCell>
                <mxCell id="125" value="11" style="rounded=0;whiteSpace=wrap;html=1;" vertex="1" parent="113">
                    <mxGeometry x="220" width="20" height="50" as="geometry"/>
                </mxCell>
                <mxCell id="126" value="12" style="rounded=0;whiteSpace=wrap;html=1;" vertex="1" parent="113">
                    <mxGeometry x="240" width="20" height="50" as="geometry"/>
                </mxCell>
                <mxCell id="127" value="13" style="rounded=0;whiteSpace=wrap;html=1;" vertex="1" parent="113">
                    <mxGeometry x="260" width="20" height="50" as="geometry"/>
                </mxCell>
                <mxCell id="128" value="14" style="rounded=0;whiteSpace=wrap;html=1;" vertex="1" parent="113">
                    <mxGeometry x="280" width="20" height="50" as="geometry"/>
                </mxCell>
                <mxCell id="129" value="15" style="rounded=0;whiteSpace=wrap;html=1;" vertex="1" parent="113">
                    <mxGeometry x="300" width="20" height="50" as="geometry"/>
                </mxCell>
                <mxCell id="130" value="128 bit (16byte)" style="text;html=1;strokeColor=none;fillColor=none;align=center;verticalAlign=middle;whiteSpace=wrap;rounded=0;" vertex="1" parent="112">
                    <mxGeometry x="330" y="10" width="60" height="30" as="geometry"/>
                </mxCell>
                <mxCell id="173" value="sram_addr&lt;br&gt;0" style="text;html=1;strokeColor=none;fillColor=none;align=center;verticalAlign=middle;whiteSpace=wrap;rounded=0;" vertex="1" parent="204">
                    <mxGeometry x="760" y="10" width="60" height="30" as="geometry"/>
                </mxCell>
                <mxCell id="174" value="sram_addr&lt;br&gt;1" style="text;html=1;strokeColor=none;fillColor=none;align=center;verticalAlign=middle;whiteSpace=wrap;rounded=0;" vertex="1" parent="204">
                    <mxGeometry x="760" y="80" width="60" height="30" as="geometry"/>
                </mxCell>
                <mxCell id="175" value="sram_addr&lt;br&gt;2" style="text;html=1;strokeColor=none;fillColor=none;align=center;verticalAlign=middle;whiteSpace=wrap;rounded=0;" vertex="1" parent="204">
                    <mxGeometry x="760" y="150" width="60" height="30" as="geometry"/>
                </mxCell>
                <mxCell id="176" value="sram_addr&lt;br&gt;3" style="text;html=1;strokeColor=none;fillColor=none;align=center;verticalAlign=middle;whiteSpace=wrap;rounded=0;" vertex="1" parent="204">
                    <mxGeometry x="760" y="220" width="60" height="30" as="geometry"/>
                </mxCell>
                <mxCell id="177" value="sram_addr&lt;br&gt;4" style="text;html=1;strokeColor=none;fillColor=none;align=center;verticalAlign=middle;whiteSpace=wrap;rounded=0;" vertex="1" parent="204">
                    <mxGeometry x="760" y="290" width="60" height="30" as="geometry"/>
                </mxCell>
                <mxCell id="178" value="sram_addr&lt;br&gt;5" style="text;html=1;strokeColor=none;fillColor=none;align=center;verticalAlign=middle;whiteSpace=wrap;rounded=0;" vertex="1" parent="204">
                    <mxGeometry x="760" y="360" width="60" height="30" as="geometry"/>
                </mxCell>
                <mxCell id="180" value="" style="group" vertex="1" connectable="0" parent="204">
                    <mxGeometry x="360" y="420" width="460" height="50" as="geometry"/>
                </mxCell>
                <mxCell id="131" value="" style="group" vertex="1" connectable="0" parent="180">
                    <mxGeometry width="390" height="50" as="geometry"/>
                </mxCell>
                <mxCell id="132" value="" style="group" vertex="1" connectable="0" parent="131">
                    <mxGeometry width="320" height="50" as="geometry"/>
                </mxCell>
                <mxCell id="133" value="0" style="rounded=0;whiteSpace=wrap;html=1;" vertex="1" parent="132">
                    <mxGeometry width="20" height="50" as="geometry"/>
                </mxCell>
                <mxCell id="134" value="1" style="rounded=0;whiteSpace=wrap;html=1;" vertex="1" parent="132">
                    <mxGeometry x="20" width="20" height="50" as="geometry"/>
                </mxCell>
                <mxCell id="135" value="2" style="rounded=0;whiteSpace=wrap;html=1;" vertex="1" parent="132">
                    <mxGeometry x="40" width="20" height="50" as="geometry"/>
                </mxCell>
                <mxCell id="136" value="3" style="rounded=0;whiteSpace=wrap;html=1;" vertex="1" parent="132">
                    <mxGeometry x="60" width="20" height="50" as="geometry"/>
                </mxCell>
                <mxCell id="137" value="4" style="rounded=0;whiteSpace=wrap;html=1;" vertex="1" parent="132">
                    <mxGeometry x="80" width="20" height="50" as="geometry"/>
                </mxCell>
                <mxCell id="138" value="5" style="rounded=0;whiteSpace=wrap;html=1;" vertex="1" parent="132">
                    <mxGeometry x="100" width="20" height="50" as="geometry"/>
                </mxCell>
                <mxCell id="139" value="6" style="rounded=0;whiteSpace=wrap;html=1;" vertex="1" parent="132">
                    <mxGeometry x="120" width="20" height="50" as="geometry"/>
                </mxCell>
                <mxCell id="140" value="7" style="rounded=0;whiteSpace=wrap;html=1;" vertex="1" parent="132">
                    <mxGeometry x="140" width="20" height="50" as="geometry"/>
                </mxCell>
                <mxCell id="141" value="8" style="rounded=0;whiteSpace=wrap;html=1;" vertex="1" parent="132">
                    <mxGeometry x="160" width="20" height="50" as="geometry"/>
                </mxCell>
                <mxCell id="142" value="9" style="rounded=0;whiteSpace=wrap;html=1;" vertex="1" parent="132">
                    <mxGeometry x="180" width="20" height="50" as="geometry"/>
                </mxCell>
                <mxCell id="143" value="10" style="rounded=0;whiteSpace=wrap;html=1;" vertex="1" parent="132">
                    <mxGeometry x="200" width="20" height="50" as="geometry"/>
                </mxCell>
                <mxCell id="144" value="11" style="rounded=0;whiteSpace=wrap;html=1;" vertex="1" parent="132">
                    <mxGeometry x="220" width="20" height="50" as="geometry"/>
                </mxCell>
                <mxCell id="145" value="12" style="rounded=0;whiteSpace=wrap;html=1;" vertex="1" parent="132">
                    <mxGeometry x="240" width="20" height="50" as="geometry"/>
                </mxCell>
                <mxCell id="146" value="13" style="rounded=0;whiteSpace=wrap;html=1;" vertex="1" parent="132">
                    <mxGeometry x="260" width="20" height="50" as="geometry"/>
                </mxCell>
                <mxCell id="147" value="14" style="rounded=0;whiteSpace=wrap;html=1;" vertex="1" parent="132">
                    <mxGeometry x="280" width="20" height="50" as="geometry"/>
                </mxCell>
                <mxCell id="148" value="15" style="rounded=0;whiteSpace=wrap;html=1;" vertex="1" parent="132">
                    <mxGeometry x="300" width="20" height="50" as="geometry"/>
                </mxCell>
                <mxCell id="149" value="128 bit (16byte)" style="text;html=1;strokeColor=none;fillColor=none;align=center;verticalAlign=middle;whiteSpace=wrap;rounded=0;" vertex="1" parent="131">
                    <mxGeometry x="330" y="10" width="60" height="30" as="geometry"/>
                </mxCell>
                <mxCell id="179" value="sram_addr&lt;br&gt;6" style="text;html=1;strokeColor=none;fillColor=none;align=center;verticalAlign=middle;whiteSpace=wrap;rounded=0;" vertex="1" parent="180">
                    <mxGeometry x="400" y="10" width="60" height="30" as="geometry"/>
                </mxCell>
                <mxCell id="181" value="" style="group" vertex="1" connectable="0" parent="204">
                    <mxGeometry x="360" y="490" width="460" height="50" as="geometry"/>
                </mxCell>
                <mxCell id="182" value="" style="group" vertex="1" connectable="0" parent="181">
                    <mxGeometry width="390" height="50" as="geometry"/>
                </mxCell>
                <mxCell id="183" value="" style="group" vertex="1" connectable="0" parent="182">
                    <mxGeometry width="320" height="50" as="geometry"/>
                </mxCell>
                <mxCell id="184" value="0" style="rounded=0;whiteSpace=wrap;html=1;" vertex="1" parent="183">
                    <mxGeometry width="20" height="50" as="geometry"/>
                </mxCell>
                <mxCell id="185" value="1" style="rounded=0;whiteSpace=wrap;html=1;" vertex="1" parent="183">
                    <mxGeometry x="20" width="20" height="50" as="geometry"/>
                </mxCell>
                <mxCell id="186" value="2" style="rounded=0;whiteSpace=wrap;html=1;" vertex="1" parent="183">
                    <mxGeometry x="40" width="20" height="50" as="geometry"/>
                </mxCell>
                <mxCell id="187" value="3" style="rounded=0;whiteSpace=wrap;html=1;" vertex="1" parent="183">
                    <mxGeometry x="60" width="20" height="50" as="geometry"/>
                </mxCell>
                <mxCell id="188" value="4" style="rounded=0;whiteSpace=wrap;html=1;" vertex="1" parent="183">
                    <mxGeometry x="80" width="20" height="50" as="geometry"/>
                </mxCell>
                <mxCell id="189" value="5" style="rounded=0;whiteSpace=wrap;html=1;" vertex="1" parent="183">
                    <mxGeometry x="100" width="20" height="50" as="geometry"/>
                </mxCell>
                <mxCell id="190" value="6" style="rounded=0;whiteSpace=wrap;html=1;" vertex="1" parent="183">
                    <mxGeometry x="120" width="20" height="50" as="geometry"/>
                </mxCell>
                <mxCell id="191" value="7" style="rounded=0;whiteSpace=wrap;html=1;" vertex="1" parent="183">
                    <mxGeometry x="140" width="20" height="50" as="geometry"/>
                </mxCell>
                <mxCell id="192" value="8" style="rounded=0;whiteSpace=wrap;html=1;" vertex="1" parent="183">
                    <mxGeometry x="160" width="20" height="50" as="geometry"/>
                </mxCell>
                <mxCell id="193" value="9" style="rounded=0;whiteSpace=wrap;html=1;" vertex="1" parent="183">
                    <mxGeometry x="180" width="20" height="50" as="geometry"/>
                </mxCell>
                <mxCell id="194" value="10" style="rounded=0;whiteSpace=wrap;html=1;" vertex="1" parent="183">
                    <mxGeometry x="200" width="20" height="50" as="geometry"/>
                </mxCell>
                <mxCell id="195" value="11" style="rounded=0;whiteSpace=wrap;html=1;" vertex="1" parent="183">
                    <mxGeometry x="220" width="20" height="50" as="geometry"/>
                </mxCell>
                <mxCell id="196" value="12" style="rounded=0;whiteSpace=wrap;html=1;" vertex="1" parent="183">
                    <mxGeometry x="240" width="20" height="50" as="geometry"/>
                </mxCell>
                <mxCell id="197" value="13" style="rounded=0;whiteSpace=wrap;html=1;" vertex="1" parent="183">
                    <mxGeometry x="260" width="20" height="50" as="geometry"/>
                </mxCell>
                <mxCell id="198" value="14" style="rounded=0;whiteSpace=wrap;html=1;" vertex="1" parent="183">
                    <mxGeometry x="280" width="20" height="50" as="geometry"/>
                </mxCell>
                <mxCell id="199" value="15" style="rounded=0;whiteSpace=wrap;html=1;" vertex="1" parent="183">
                    <mxGeometry x="300" width="20" height="50" as="geometry"/>
                </mxCell>
                <mxCell id="200" value="128 bit (16byte)" style="text;html=1;strokeColor=none;fillColor=none;align=center;verticalAlign=middle;whiteSpace=wrap;rounded=0;" vertex="1" parent="182">
                    <mxGeometry x="330" y="10" width="60" height="30" as="geometry"/>
                </mxCell>
                <mxCell id="201" value="sram_addr&lt;br&gt;7" style="text;html=1;strokeColor=none;fillColor=none;align=center;verticalAlign=middle;whiteSpace=wrap;rounded=0;" vertex="1" parent="181">
                    <mxGeometry x="400" y="10" width="60" height="30" as="geometry"/>
                </mxCell>
                <mxCell id="202" value="" style="shape=curlyBracket;whiteSpace=wrap;html=1;rounded=1;size=0.3;" vertex="1" parent="204">
                    <mxGeometry x="330" y="5" width="20" height="525" as="geometry"/>
                </mxCell>
                <mxCell id="203" value="CACHE block(128Byte)" style="shape=ext;double=1;rounded=0;whiteSpace=wrap;html=1;fontSize=17;" vertex="1" parent="204">
                    <mxGeometry y="250" width="280" height="50" as="geometry"/>
                </mxCell>
                <mxCell id="205" value="" style="group" vertex="1" connectable="0" parent="1">
                    <mxGeometry x="210" y="1360" width="820" height="540" as="geometry"/>
                </mxCell>
                <mxCell id="206" value="" style="group" vertex="1" connectable="0" parent="205">
                    <mxGeometry x="360" width="390" height="50" as="geometry"/>
                </mxCell>
                <mxCell id="207" value="" style="group" vertex="1" connectable="0" parent="206">
                    <mxGeometry width="320" height="50" as="geometry"/>
                </mxCell>
                <mxCell id="208" value="0" style="rounded=0;whiteSpace=wrap;html=1;" vertex="1" parent="207">
                    <mxGeometry width="20" height="50" as="geometry"/>
                </mxCell>
                <mxCell id="209" value="1" style="rounded=0;whiteSpace=wrap;html=1;" vertex="1" parent="207">
                    <mxGeometry x="20" width="20" height="50" as="geometry"/>
                </mxCell>
                <mxCell id="210" value="2" style="rounded=0;whiteSpace=wrap;html=1;" vertex="1" parent="207">
                    <mxGeometry x="40" width="20" height="50" as="geometry"/>
                </mxCell>
                <mxCell id="211" value="3" style="rounded=0;whiteSpace=wrap;html=1;" vertex="1" parent="207">
                    <mxGeometry x="60" width="20" height="50" as="geometry"/>
                </mxCell>
                <mxCell id="212" value="4" style="rounded=0;whiteSpace=wrap;html=1;" vertex="1" parent="207">
                    <mxGeometry x="80" width="20" height="50" as="geometry"/>
                </mxCell>
                <mxCell id="213" value="5" style="rounded=0;whiteSpace=wrap;html=1;" vertex="1" parent="207">
                    <mxGeometry x="100" width="20" height="50" as="geometry"/>
                </mxCell>
                <mxCell id="214" value="6" style="rounded=0;whiteSpace=wrap;html=1;" vertex="1" parent="207">
                    <mxGeometry x="120" width="20" height="50" as="geometry"/>
                </mxCell>
                <mxCell id="215" value="7" style="rounded=0;whiteSpace=wrap;html=1;" vertex="1" parent="207">
                    <mxGeometry x="140" width="20" height="50" as="geometry"/>
                </mxCell>
                <mxCell id="216" value="8" style="rounded=0;whiteSpace=wrap;html=1;" vertex="1" parent="207">
                    <mxGeometry x="160" width="20" height="50" as="geometry"/>
                </mxCell>
                <mxCell id="217" value="9" style="rounded=0;whiteSpace=wrap;html=1;" vertex="1" parent="207">
                    <mxGeometry x="180" width="20" height="50" as="geometry"/>
                </mxCell>
                <mxCell id="218" value="10" style="rounded=0;whiteSpace=wrap;html=1;" vertex="1" parent="207">
                    <mxGeometry x="200" width="20" height="50" as="geometry"/>
                </mxCell>
                <mxCell id="219" value="11" style="rounded=0;whiteSpace=wrap;html=1;" vertex="1" parent="207">
                    <mxGeometry x="220" width="20" height="50" as="geometry"/>
                </mxCell>
                <mxCell id="220" value="12" style="rounded=0;whiteSpace=wrap;html=1;" vertex="1" parent="207">
                    <mxGeometry x="240" width="20" height="50" as="geometry"/>
                </mxCell>
                <mxCell id="221" value="13" style="rounded=0;whiteSpace=wrap;html=1;" vertex="1" parent="207">
                    <mxGeometry x="260" width="20" height="50" as="geometry"/>
                </mxCell>
                <mxCell id="222" value="14" style="rounded=0;whiteSpace=wrap;html=1;" vertex="1" parent="207">
                    <mxGeometry x="280" width="20" height="50" as="geometry"/>
                </mxCell>
                <mxCell id="223" value="15" style="rounded=0;whiteSpace=wrap;html=1;" vertex="1" parent="207">
                    <mxGeometry x="300" width="20" height="50" as="geometry"/>
                </mxCell>
                <mxCell id="224" value="128 bit (16byte)" style="text;html=1;strokeColor=none;fillColor=none;align=center;verticalAlign=middle;whiteSpace=wrap;rounded=0;" vertex="1" parent="206">
                    <mxGeometry x="330" y="10" width="60" height="30" as="geometry"/>
                </mxCell>
                <mxCell id="225" value="" style="group" vertex="1" connectable="0" parent="205">
                    <mxGeometry x="360" y="70" width="390" height="50" as="geometry"/>
                </mxCell>
                <mxCell id="226" value="" style="group" vertex="1" connectable="0" parent="225">
                    <mxGeometry width="320" height="50" as="geometry"/>
                </mxCell>
                <mxCell id="227" value="0" style="rounded=0;whiteSpace=wrap;html=1;" vertex="1" parent="226">
                    <mxGeometry width="20" height="50" as="geometry"/>
                </mxCell>
                <mxCell id="228" value="1" style="rounded=0;whiteSpace=wrap;html=1;" vertex="1" parent="226">
                    <mxGeometry x="20" width="20" height="50" as="geometry"/>
                </mxCell>
                <mxCell id="229" value="2" style="rounded=0;whiteSpace=wrap;html=1;" vertex="1" parent="226">
                    <mxGeometry x="40" width="20" height="50" as="geometry"/>
                </mxCell>
                <mxCell id="230" value="3" style="rounded=0;whiteSpace=wrap;html=1;" vertex="1" parent="226">
                    <mxGeometry x="60" width="20" height="50" as="geometry"/>
                </mxCell>
                <mxCell id="231" value="4" style="rounded=0;whiteSpace=wrap;html=1;" vertex="1" parent="226">
                    <mxGeometry x="80" width="20" height="50" as="geometry"/>
                </mxCell>
                <mxCell id="232" value="5" style="rounded=0;whiteSpace=wrap;html=1;" vertex="1" parent="226">
                    <mxGeometry x="100" width="20" height="50" as="geometry"/>
                </mxCell>
                <mxCell id="233" value="6" style="rounded=0;whiteSpace=wrap;html=1;" vertex="1" parent="226">
                    <mxGeometry x="120" width="20" height="50" as="geometry"/>
                </mxCell>
                <mxCell id="234" value="7" style="rounded=0;whiteSpace=wrap;html=1;" vertex="1" parent="226">
                    <mxGeometry x="140" width="20" height="50" as="geometry"/>
                </mxCell>
                <mxCell id="235" value="8" style="rounded=0;whiteSpace=wrap;html=1;" vertex="1" parent="226">
                    <mxGeometry x="160" width="20" height="50" as="geometry"/>
                </mxCell>
                <mxCell id="236" value="9" style="rounded=0;whiteSpace=wrap;html=1;" vertex="1" parent="226">
                    <mxGeometry x="180" width="20" height="50" as="geometry"/>
                </mxCell>
                <mxCell id="237" value="10" style="rounded=0;whiteSpace=wrap;html=1;" vertex="1" parent="226">
                    <mxGeometry x="200" width="20" height="50" as="geometry"/>
                </mxCell>
                <mxCell id="238" value="11" style="rounded=0;whiteSpace=wrap;html=1;" vertex="1" parent="226">
                    <mxGeometry x="220" width="20" height="50" as="geometry"/>
                </mxCell>
                <mxCell id="239" value="12" style="rounded=0;whiteSpace=wrap;html=1;" vertex="1" parent="226">
                    <mxGeometry x="240" width="20" height="50" as="geometry"/>
                </mxCell>
                <mxCell id="240" value="13" style="rounded=0;whiteSpace=wrap;html=1;" vertex="1" parent="226">
                    <mxGeometry x="260" width="20" height="50" as="geometry"/>
                </mxCell>
                <mxCell id="241" value="14" style="rounded=0;whiteSpace=wrap;html=1;" vertex="1" parent="226">
                    <mxGeometry x="280" width="20" height="50" as="geometry"/>
                </mxCell>
                <mxCell id="242" value="15" style="rounded=0;whiteSpace=wrap;html=1;" vertex="1" parent="226">
                    <mxGeometry x="300" width="20" height="50" as="geometry"/>
                </mxCell>
                <mxCell id="243" value="128 bit (16byte)" style="text;html=1;strokeColor=none;fillColor=none;align=center;verticalAlign=middle;whiteSpace=wrap;rounded=0;" vertex="1" parent="225">
                    <mxGeometry x="330" y="10" width="60" height="30" as="geometry"/>
                </mxCell>
                <mxCell id="244" value="" style="group" vertex="1" connectable="0" parent="205">
                    <mxGeometry x="360" y="140" width="390" height="50" as="geometry"/>
                </mxCell>
                <mxCell id="245" value="" style="group" vertex="1" connectable="0" parent="244">
                    <mxGeometry width="320" height="50" as="geometry"/>
                </mxCell>
                <mxCell id="246" value="0" style="rounded=0;whiteSpace=wrap;html=1;" vertex="1" parent="245">
                    <mxGeometry width="20" height="50" as="geometry"/>
                </mxCell>
                <mxCell id="247" value="1" style="rounded=0;whiteSpace=wrap;html=1;" vertex="1" parent="245">
                    <mxGeometry x="20" width="20" height="50" as="geometry"/>
                </mxCell>
                <mxCell id="248" value="2" style="rounded=0;whiteSpace=wrap;html=1;" vertex="1" parent="245">
                    <mxGeometry x="40" width="20" height="50" as="geometry"/>
                </mxCell>
                <mxCell id="249" value="3" style="rounded=0;whiteSpace=wrap;html=1;" vertex="1" parent="245">
                    <mxGeometry x="60" width="20" height="50" as="geometry"/>
                </mxCell>
                <mxCell id="250" value="4" style="rounded=0;whiteSpace=wrap;html=1;" vertex="1" parent="245">
                    <mxGeometry x="80" width="20" height="50" as="geometry"/>
                </mxCell>
                <mxCell id="251" value="5" style="rounded=0;whiteSpace=wrap;html=1;" vertex="1" parent="245">
                    <mxGeometry x="100" width="20" height="50" as="geometry"/>
                </mxCell>
                <mxCell id="252" value="6" style="rounded=0;whiteSpace=wrap;html=1;" vertex="1" parent="245">
                    <mxGeometry x="120" width="20" height="50" as="geometry"/>
                </mxCell>
                <mxCell id="253" value="7" style="rounded=0;whiteSpace=wrap;html=1;" vertex="1" parent="245">
                    <mxGeometry x="140" width="20" height="50" as="geometry"/>
                </mxCell>
                <mxCell id="254" value="8" style="rounded=0;whiteSpace=wrap;html=1;" vertex="1" parent="245">
                    <mxGeometry x="160" width="20" height="50" as="geometry"/>
                </mxCell>
                <mxCell id="255" value="9" style="rounded=0;whiteSpace=wrap;html=1;" vertex="1" parent="245">
                    <mxGeometry x="180" width="20" height="50" as="geometry"/>
                </mxCell>
                <mxCell id="256" value="10" style="rounded=0;whiteSpace=wrap;html=1;" vertex="1" parent="245">
                    <mxGeometry x="200" width="20" height="50" as="geometry"/>
                </mxCell>
                <mxCell id="257" value="11" style="rounded=0;whiteSpace=wrap;html=1;" vertex="1" parent="245">
                    <mxGeometry x="220" width="20" height="50" as="geometry"/>
                </mxCell>
                <mxCell id="258" value="12" style="rounded=0;whiteSpace=wrap;html=1;" vertex="1" parent="245">
                    <mxGeometry x="240" width="20" height="50" as="geometry"/>
                </mxCell>
                <mxCell id="259" value="13" style="rounded=0;whiteSpace=wrap;html=1;" vertex="1" parent="245">
                    <mxGeometry x="260" width="20" height="50" as="geometry"/>
                </mxCell>
                <mxCell id="260" value="14" style="rounded=0;whiteSpace=wrap;html=1;" vertex="1" parent="245">
                    <mxGeometry x="280" width="20" height="50" as="geometry"/>
                </mxCell>
                <mxCell id="261" value="15" style="rounded=0;whiteSpace=wrap;html=1;" vertex="1" parent="245">
                    <mxGeometry x="300" width="20" height="50" as="geometry"/>
                </mxCell>
                <mxCell id="262" value="128 bit (16byte)" style="text;html=1;strokeColor=none;fillColor=none;align=center;verticalAlign=middle;whiteSpace=wrap;rounded=0;" vertex="1" parent="244">
                    <mxGeometry x="330" y="10" width="60" height="30" as="geometry"/>
                </mxCell>
                <mxCell id="263" value="" style="group" vertex="1" connectable="0" parent="205">
                    <mxGeometry x="360" y="210" width="390" height="50" as="geometry"/>
                </mxCell>
                <mxCell id="264" value="" style="group" vertex="1" connectable="0" parent="263">
                    <mxGeometry width="320" height="50" as="geometry"/>
                </mxCell>
                <mxCell id="265" value="0" style="rounded=0;whiteSpace=wrap;html=1;" vertex="1" parent="264">
                    <mxGeometry width="20" height="50" as="geometry"/>
                </mxCell>
                <mxCell id="266" value="1" style="rounded=0;whiteSpace=wrap;html=1;" vertex="1" parent="264">
                    <mxGeometry x="20" width="20" height="50" as="geometry"/>
                </mxCell>
                <mxCell id="267" value="2" style="rounded=0;whiteSpace=wrap;html=1;" vertex="1" parent="264">
                    <mxGeometry x="40" width="20" height="50" as="geometry"/>
                </mxCell>
                <mxCell id="268" value="3" style="rounded=0;whiteSpace=wrap;html=1;" vertex="1" parent="264">
                    <mxGeometry x="60" width="20" height="50" as="geometry"/>
                </mxCell>
                <mxCell id="269" value="4" style="rounded=0;whiteSpace=wrap;html=1;" vertex="1" parent="264">
                    <mxGeometry x="80" width="20" height="50" as="geometry"/>
                </mxCell>
                <mxCell id="270" value="5" style="rounded=0;whiteSpace=wrap;html=1;" vertex="1" parent="264">
                    <mxGeometry x="100" width="20" height="50" as="geometry"/>
                </mxCell>
                <mxCell id="271" value="6" style="rounded=0;whiteSpace=wrap;html=1;" vertex="1" parent="264">
                    <mxGeometry x="120" width="20" height="50" as="geometry"/>
                </mxCell>
                <mxCell id="272" value="7" style="rounded=0;whiteSpace=wrap;html=1;" vertex="1" parent="264">
                    <mxGeometry x="140" width="20" height="50" as="geometry"/>
                </mxCell>
                <mxCell id="273" value="8" style="rounded=0;whiteSpace=wrap;html=1;" vertex="1" parent="264">
                    <mxGeometry x="160" width="20" height="50" as="geometry"/>
                </mxCell>
                <mxCell id="274" value="9" style="rounded=0;whiteSpace=wrap;html=1;" vertex="1" parent="264">
                    <mxGeometry x="180" width="20" height="50" as="geometry"/>
                </mxCell>
                <mxCell id="275" value="10" style="rounded=0;whiteSpace=wrap;html=1;" vertex="1" parent="264">
                    <mxGeometry x="200" width="20" height="50" as="geometry"/>
                </mxCell>
                <mxCell id="276" value="11" style="rounded=0;whiteSpace=wrap;html=1;" vertex="1" parent="264">
                    <mxGeometry x="220" width="20" height="50" as="geometry"/>
                </mxCell>
                <mxCell id="277" value="12" style="rounded=0;whiteSpace=wrap;html=1;" vertex="1" parent="264">
                    <mxGeometry x="240" width="20" height="50" as="geometry"/>
                </mxCell>
                <mxCell id="278" value="13" style="rounded=0;whiteSpace=wrap;html=1;" vertex="1" parent="264">
                    <mxGeometry x="260" width="20" height="50" as="geometry"/>
                </mxCell>
                <mxCell id="279" value="14" style="rounded=0;whiteSpace=wrap;html=1;" vertex="1" parent="264">
                    <mxGeometry x="280" width="20" height="50" as="geometry"/>
                </mxCell>
                <mxCell id="280" value="15" style="rounded=0;whiteSpace=wrap;html=1;" vertex="1" parent="264">
                    <mxGeometry x="300" width="20" height="50" as="geometry"/>
                </mxCell>
                <mxCell id="281" value="128 bit (16byte)" style="text;html=1;strokeColor=none;fillColor=none;align=center;verticalAlign=middle;whiteSpace=wrap;rounded=0;" vertex="1" parent="263">
                    <mxGeometry x="330" y="10" width="60" height="30" as="geometry"/>
                </mxCell>
                <mxCell id="282" value="" style="group" vertex="1" connectable="0" parent="205">
                    <mxGeometry x="360" y="280" width="390" height="50" as="geometry"/>
                </mxCell>
                <mxCell id="283" value="" style="group" vertex="1" connectable="0" parent="282">
                    <mxGeometry width="320" height="50" as="geometry"/>
                </mxCell>
                <mxCell id="284" value="0" style="rounded=0;whiteSpace=wrap;html=1;" vertex="1" parent="283">
                    <mxGeometry width="20" height="50" as="geometry"/>
                </mxCell>
                <mxCell id="285" value="1" style="rounded=0;whiteSpace=wrap;html=1;" vertex="1" parent="283">
                    <mxGeometry x="20" width="20" height="50" as="geometry"/>
                </mxCell>
                <mxCell id="286" value="2" style="rounded=0;whiteSpace=wrap;html=1;" vertex="1" parent="283">
                    <mxGeometry x="40" width="20" height="50" as="geometry"/>
                </mxCell>
                <mxCell id="287" value="3" style="rounded=0;whiteSpace=wrap;html=1;" vertex="1" parent="283">
                    <mxGeometry x="60" width="20" height="50" as="geometry"/>
                </mxCell>
                <mxCell id="288" value="4" style="rounded=0;whiteSpace=wrap;html=1;" vertex="1" parent="283">
                    <mxGeometry x="80" width="20" height="50" as="geometry"/>
                </mxCell>
                <mxCell id="289" value="5" style="rounded=0;whiteSpace=wrap;html=1;" vertex="1" parent="283">
                    <mxGeometry x="100" width="20" height="50" as="geometry"/>
                </mxCell>
                <mxCell id="290" value="6" style="rounded=0;whiteSpace=wrap;html=1;" vertex="1" parent="283">
                    <mxGeometry x="120" width="20" height="50" as="geometry"/>
                </mxCell>
                <mxCell id="291" value="7" style="rounded=0;whiteSpace=wrap;html=1;" vertex="1" parent="283">
                    <mxGeometry x="140" width="20" height="50" as="geometry"/>
                </mxCell>
                <mxCell id="292" value="8" style="rounded=0;whiteSpace=wrap;html=1;" vertex="1" parent="283">
                    <mxGeometry x="160" width="20" height="50" as="geometry"/>
                </mxCell>
                <mxCell id="293" value="9" style="rounded=0;whiteSpace=wrap;html=1;" vertex="1" parent="283">
                    <mxGeometry x="180" width="20" height="50" as="geometry"/>
                </mxCell>
                <mxCell id="294" value="10" style="rounded=0;whiteSpace=wrap;html=1;" vertex="1" parent="283">
                    <mxGeometry x="200" width="20" height="50" as="geometry"/>
                </mxCell>
                <mxCell id="295" value="11" style="rounded=0;whiteSpace=wrap;html=1;" vertex="1" parent="283">
                    <mxGeometry x="220" width="20" height="50" as="geometry"/>
                </mxCell>
                <mxCell id="296" value="12" style="rounded=0;whiteSpace=wrap;html=1;" vertex="1" parent="283">
                    <mxGeometry x="240" width="20" height="50" as="geometry"/>
                </mxCell>
                <mxCell id="297" value="13" style="rounded=0;whiteSpace=wrap;html=1;" vertex="1" parent="283">
                    <mxGeometry x="260" width="20" height="50" as="geometry"/>
                </mxCell>
                <mxCell id="298" value="14" style="rounded=0;whiteSpace=wrap;html=1;" vertex="1" parent="283">
                    <mxGeometry x="280" width="20" height="50" as="geometry"/>
                </mxCell>
                <mxCell id="299" value="15" style="rounded=0;whiteSpace=wrap;html=1;" vertex="1" parent="283">
                    <mxGeometry x="300" width="20" height="50" as="geometry"/>
                </mxCell>
                <mxCell id="300" value="128 bit (16byte)" style="text;html=1;strokeColor=none;fillColor=none;align=center;verticalAlign=middle;whiteSpace=wrap;rounded=0;" vertex="1" parent="282">
                    <mxGeometry x="330" y="10" width="60" height="30" as="geometry"/>
                </mxCell>
                <mxCell id="301" value="" style="group" vertex="1" connectable="0" parent="205">
                    <mxGeometry x="360" y="350" width="390" height="50" as="geometry"/>
                </mxCell>
                <mxCell id="302" value="" style="group" vertex="1" connectable="0" parent="301">
                    <mxGeometry width="320" height="50" as="geometry"/>
                </mxCell>
                <mxCell id="303" value="0" style="rounded=0;whiteSpace=wrap;html=1;" vertex="1" parent="302">
                    <mxGeometry width="20" height="50" as="geometry"/>
                </mxCell>
                <mxCell id="304" value="1" style="rounded=0;whiteSpace=wrap;html=1;" vertex="1" parent="302">
                    <mxGeometry x="20" width="20" height="50" as="geometry"/>
                </mxCell>
                <mxCell id="305" value="2" style="rounded=0;whiteSpace=wrap;html=1;" vertex="1" parent="302">
                    <mxGeometry x="40" width="20" height="50" as="geometry"/>
                </mxCell>
                <mxCell id="306" value="3" style="rounded=0;whiteSpace=wrap;html=1;" vertex="1" parent="302">
                    <mxGeometry x="60" width="20" height="50" as="geometry"/>
                </mxCell>
                <mxCell id="307" value="4" style="rounded=0;whiteSpace=wrap;html=1;" vertex="1" parent="302">
                    <mxGeometry x="80" width="20" height="50" as="geometry"/>
                </mxCell>
                <mxCell id="308" value="5" style="rounded=0;whiteSpace=wrap;html=1;" vertex="1" parent="302">
                    <mxGeometry x="100" width="20" height="50" as="geometry"/>
                </mxCell>
                <mxCell id="309" value="6" style="rounded=0;whiteSpace=wrap;html=1;" vertex="1" parent="302">
                    <mxGeometry x="120" width="20" height="50" as="geometry"/>
                </mxCell>
                <mxCell id="310" value="7" style="rounded=0;whiteSpace=wrap;html=1;" vertex="1" parent="302">
                    <mxGeometry x="140" width="20" height="50" as="geometry"/>
                </mxCell>
                <mxCell id="311" value="8" style="rounded=0;whiteSpace=wrap;html=1;" vertex="1" parent="302">
                    <mxGeometry x="160" width="20" height="50" as="geometry"/>
                </mxCell>
                <mxCell id="312" value="9" style="rounded=0;whiteSpace=wrap;html=1;" vertex="1" parent="302">
                    <mxGeometry x="180" width="20" height="50" as="geometry"/>
                </mxCell>
                <mxCell id="313" value="10" style="rounded=0;whiteSpace=wrap;html=1;" vertex="1" parent="302">
                    <mxGeometry x="200" width="20" height="50" as="geometry"/>
                </mxCell>
                <mxCell id="314" value="11" style="rounded=0;whiteSpace=wrap;html=1;" vertex="1" parent="302">
                    <mxGeometry x="220" width="20" height="50" as="geometry"/>
                </mxCell>
                <mxCell id="315" value="12" style="rounded=0;whiteSpace=wrap;html=1;" vertex="1" parent="302">
                    <mxGeometry x="240" width="20" height="50" as="geometry"/>
                </mxCell>
                <mxCell id="316" value="13" style="rounded=0;whiteSpace=wrap;html=1;" vertex="1" parent="302">
                    <mxGeometry x="260" width="20" height="50" as="geometry"/>
                </mxCell>
                <mxCell id="317" value="14" style="rounded=0;whiteSpace=wrap;html=1;" vertex="1" parent="302">
                    <mxGeometry x="280" width="20" height="50" as="geometry"/>
                </mxCell>
                <mxCell id="318" value="15" style="rounded=0;whiteSpace=wrap;html=1;" vertex="1" parent="302">
                    <mxGeometry x="300" width="20" height="50" as="geometry"/>
                </mxCell>
                <mxCell id="319" value="128 bit (16byte)" style="text;html=1;strokeColor=none;fillColor=none;align=center;verticalAlign=middle;whiteSpace=wrap;rounded=0;" vertex="1" parent="301">
                    <mxGeometry x="330" y="10" width="60" height="30" as="geometry"/>
                </mxCell>
                <mxCell id="320" value="sram_addr&lt;br&gt;0" style="text;html=1;strokeColor=none;fillColor=none;align=center;verticalAlign=middle;whiteSpace=wrap;rounded=0;" vertex="1" parent="205">
                    <mxGeometry x="760" y="10" width="60" height="30" as="geometry"/>
                </mxCell>
                <mxCell id="321" value="sram_addr&lt;br&gt;1" style="text;html=1;strokeColor=none;fillColor=none;align=center;verticalAlign=middle;whiteSpace=wrap;rounded=0;" vertex="1" parent="205">
                    <mxGeometry x="760" y="80" width="60" height="30" as="geometry"/>
                </mxCell>
                <mxCell id="322" value="sram_addr&lt;br&gt;2" style="text;html=1;strokeColor=none;fillColor=none;align=center;verticalAlign=middle;whiteSpace=wrap;rounded=0;" vertex="1" parent="205">
                    <mxGeometry x="760" y="150" width="60" height="30" as="geometry"/>
                </mxCell>
                <mxCell id="323" value="sram_addr&lt;br&gt;3" style="text;html=1;strokeColor=none;fillColor=none;align=center;verticalAlign=middle;whiteSpace=wrap;rounded=0;" vertex="1" parent="205">
                    <mxGeometry x="760" y="220" width="60" height="30" as="geometry"/>
                </mxCell>
                <mxCell id="324" value="sram_addr&lt;br&gt;4" style="text;html=1;strokeColor=none;fillColor=none;align=center;verticalAlign=middle;whiteSpace=wrap;rounded=0;" vertex="1" parent="205">
                    <mxGeometry x="760" y="290" width="60" height="30" as="geometry"/>
                </mxCell>
                <mxCell id="325" value="sram_addr&lt;br&gt;5" style="text;html=1;strokeColor=none;fillColor=none;align=center;verticalAlign=middle;whiteSpace=wrap;rounded=0;" vertex="1" parent="205">
                    <mxGeometry x="760" y="360" width="60" height="30" as="geometry"/>
                </mxCell>
                <mxCell id="326" value="" style="group" vertex="1" connectable="0" parent="205">
                    <mxGeometry x="360" y="420" width="460" height="50" as="geometry"/>
                </mxCell>
                <mxCell id="327" value="" style="group" vertex="1" connectable="0" parent="326">
                    <mxGeometry width="390" height="50" as="geometry"/>
                </mxCell>
                <mxCell id="328" value="" style="group" vertex="1" connectable="0" parent="327">
                    <mxGeometry width="320" height="50" as="geometry"/>
                </mxCell>
                <mxCell id="329" value="0" style="rounded=0;whiteSpace=wrap;html=1;" vertex="1" parent="328">
                    <mxGeometry width="20" height="50" as="geometry"/>
                </mxCell>
                <mxCell id="330" value="1" style="rounded=0;whiteSpace=wrap;html=1;" vertex="1" parent="328">
                    <mxGeometry x="20" width="20" height="50" as="geometry"/>
                </mxCell>
                <mxCell id="331" value="2" style="rounded=0;whiteSpace=wrap;html=1;" vertex="1" parent="328">
                    <mxGeometry x="40" width="20" height="50" as="geometry"/>
                </mxCell>
                <mxCell id="332" value="3" style="rounded=0;whiteSpace=wrap;html=1;" vertex="1" parent="328">
                    <mxGeometry x="60" width="20" height="50" as="geometry"/>
                </mxCell>
                <mxCell id="333" value="4" style="rounded=0;whiteSpace=wrap;html=1;" vertex="1" parent="328">
                    <mxGeometry x="80" width="20" height="50" as="geometry"/>
                </mxCell>
                <mxCell id="334" value="5" style="rounded=0;whiteSpace=wrap;html=1;" vertex="1" parent="328">
                    <mxGeometry x="100" width="20" height="50" as="geometry"/>
                </mxCell>
                <mxCell id="335" value="6" style="rounded=0;whiteSpace=wrap;html=1;" vertex="1" parent="328">
                    <mxGeometry x="120" width="20" height="50" as="geometry"/>
                </mxCell>
                <mxCell id="336" value="7" style="rounded=0;whiteSpace=wrap;html=1;" vertex="1" parent="328">
                    <mxGeometry x="140" width="20" height="50" as="geometry"/>
                </mxCell>
                <mxCell id="337" value="8" style="rounded=0;whiteSpace=wrap;html=1;" vertex="1" parent="328">
                    <mxGeometry x="160" width="20" height="50" as="geometry"/>
                </mxCell>
                <mxCell id="338" value="9" style="rounded=0;whiteSpace=wrap;html=1;" vertex="1" parent="328">
                    <mxGeometry x="180" width="20" height="50" as="geometry"/>
                </mxCell>
                <mxCell id="339" value="10" style="rounded=0;whiteSpace=wrap;html=1;" vertex="1" parent="328">
                    <mxGeometry x="200" width="20" height="50" as="geometry"/>
                </mxCell>
                <mxCell id="340" value="11" style="rounded=0;whiteSpace=wrap;html=1;" vertex="1" parent="328">
                    <mxGeometry x="220" width="20" height="50" as="geometry"/>
                </mxCell>
                <mxCell id="341" value="12" style="rounded=0;whiteSpace=wrap;html=1;" vertex="1" parent="328">
                    <mxGeometry x="240" width="20" height="50" as="geometry"/>
                </mxCell>
                <mxCell id="342" value="13" style="rounded=0;whiteSpace=wrap;html=1;" vertex="1" parent="328">
                    <mxGeometry x="260" width="20" height="50" as="geometry"/>
                </mxCell>
                <mxCell id="343" value="14" style="rounded=0;whiteSpace=wrap;html=1;" vertex="1" parent="328">
                    <mxGeometry x="280" width="20" height="50" as="geometry"/>
                </mxCell>
                <mxCell id="344" value="15" style="rounded=0;whiteSpace=wrap;html=1;" vertex="1" parent="328">
                    <mxGeometry x="300" width="20" height="50" as="geometry"/>
                </mxCell>
                <mxCell id="345" value="128 bit (16byte)" style="text;html=1;strokeColor=none;fillColor=none;align=center;verticalAlign=middle;whiteSpace=wrap;rounded=0;" vertex="1" parent="327">
                    <mxGeometry x="330" y="10" width="60" height="30" as="geometry"/>
                </mxCell>
                <mxCell id="346" value="sram_addr&lt;br&gt;6" style="text;html=1;strokeColor=none;fillColor=none;align=center;verticalAlign=middle;whiteSpace=wrap;rounded=0;" vertex="1" parent="326">
                    <mxGeometry x="400" y="10" width="60" height="30" as="geometry"/>
                </mxCell>
                <mxCell id="347" value="" style="group" vertex="1" connectable="0" parent="205">
                    <mxGeometry x="360" y="490" width="460" height="50" as="geometry"/>
                </mxCell>
                <mxCell id="348" value="" style="group" vertex="1" connectable="0" parent="347">
                    <mxGeometry width="390" height="50" as="geometry"/>
                </mxCell>
                <mxCell id="349" value="" style="group" vertex="1" connectable="0" parent="348">
                    <mxGeometry width="320" height="50" as="geometry"/>
                </mxCell>
                <mxCell id="350" value="0" style="rounded=0;whiteSpace=wrap;html=1;" vertex="1" parent="349">
                    <mxGeometry width="20" height="50" as="geometry"/>
                </mxCell>
                <mxCell id="351" value="1" style="rounded=0;whiteSpace=wrap;html=1;" vertex="1" parent="349">
                    <mxGeometry x="20" width="20" height="50" as="geometry"/>
                </mxCell>
                <mxCell id="352" value="2" style="rounded=0;whiteSpace=wrap;html=1;" vertex="1" parent="349">
                    <mxGeometry x="40" width="20" height="50" as="geometry"/>
                </mxCell>
                <mxCell id="353" value="3" style="rounded=0;whiteSpace=wrap;html=1;" vertex="1" parent="349">
                    <mxGeometry x="60" width="20" height="50" as="geometry"/>
                </mxCell>
                <mxCell id="354" value="4" style="rounded=0;whiteSpace=wrap;html=1;" vertex="1" parent="349">
                    <mxGeometry x="80" width="20" height="50" as="geometry"/>
                </mxCell>
                <mxCell id="355" value="5" style="rounded=0;whiteSpace=wrap;html=1;" vertex="1" parent="349">
                    <mxGeometry x="100" width="20" height="50" as="geometry"/>
                </mxCell>
                <mxCell id="356" value="6" style="rounded=0;whiteSpace=wrap;html=1;" vertex="1" parent="349">
                    <mxGeometry x="120" width="20" height="50" as="geometry"/>
                </mxCell>
                <mxCell id="357" value="7" style="rounded=0;whiteSpace=wrap;html=1;" vertex="1" parent="349">
                    <mxGeometry x="140" width="20" height="50" as="geometry"/>
                </mxCell>
                <mxCell id="358" value="8" style="rounded=0;whiteSpace=wrap;html=1;" vertex="1" parent="349">
                    <mxGeometry x="160" width="20" height="50" as="geometry"/>
                </mxCell>
                <mxCell id="359" value="9" style="rounded=0;whiteSpace=wrap;html=1;" vertex="1" parent="349">
                    <mxGeometry x="180" width="20" height="50" as="geometry"/>
                </mxCell>
                <mxCell id="360" value="10" style="rounded=0;whiteSpace=wrap;html=1;" vertex="1" parent="349">
                    <mxGeometry x="200" width="20" height="50" as="geometry"/>
                </mxCell>
                <mxCell id="361" value="11" style="rounded=0;whiteSpace=wrap;html=1;" vertex="1" parent="349">
                    <mxGeometry x="220" width="20" height="50" as="geometry"/>
                </mxCell>
                <mxCell id="362" value="12" style="rounded=0;whiteSpace=wrap;html=1;" vertex="1" parent="349">
                    <mxGeometry x="240" width="20" height="50" as="geometry"/>
                </mxCell>
                <mxCell id="363" value="13" style="rounded=0;whiteSpace=wrap;html=1;" vertex="1" parent="349">
                    <mxGeometry x="260" width="20" height="50" as="geometry"/>
                </mxCell>
                <mxCell id="364" value="14" style="rounded=0;whiteSpace=wrap;html=1;" vertex="1" parent="349">
                    <mxGeometry x="280" width="20" height="50" as="geometry"/>
                </mxCell>
                <mxCell id="365" value="15" style="rounded=0;whiteSpace=wrap;html=1;" vertex="1" parent="349">
                    <mxGeometry x="300" width="20" height="50" as="geometry"/>
                </mxCell>
                <mxCell id="366" value="128 bit (16byte)" style="text;html=1;strokeColor=none;fillColor=none;align=center;verticalAlign=middle;whiteSpace=wrap;rounded=0;" vertex="1" parent="348">
                    <mxGeometry x="330" y="10" width="60" height="30" as="geometry"/>
                </mxCell>
                <mxCell id="367" value="sram_addr&lt;br&gt;7" style="text;html=1;strokeColor=none;fillColor=none;align=center;verticalAlign=middle;whiteSpace=wrap;rounded=0;" vertex="1" parent="347">
                    <mxGeometry x="400" y="10" width="60" height="30" as="geometry"/>
                </mxCell>
                <mxCell id="368" value="" style="shape=curlyBracket;whiteSpace=wrap;html=1;rounded=1;size=0.3;" vertex="1" parent="205">
                    <mxGeometry x="330" y="5" width="20" height="525" as="geometry"/>
                </mxCell>
                <mxCell id="369" value="CACHE block(128Byte)" style="shape=ext;double=1;rounded=0;whiteSpace=wrap;html=1;fontSize=17;" vertex="1" parent="205">
                    <mxGeometry y="250" width="280" height="50" as="geometry"/>
                </mxCell>
                <mxCell id="370" value="" style="group" vertex="1" connectable="0" parent="1">
                    <mxGeometry x="210" y="2010" width="820" height="540" as="geometry"/>
                </mxCell>
                <mxCell id="371" value="" style="group" vertex="1" connectable="0" parent="370">
                    <mxGeometry x="360" width="390" height="50" as="geometry"/>
                </mxCell>
                <mxCell id="372" value="" style="group" vertex="1" connectable="0" parent="371">
                    <mxGeometry width="320" height="50" as="geometry"/>
                </mxCell>
                <mxCell id="373" value="0" style="rounded=0;whiteSpace=wrap;html=1;" vertex="1" parent="372">
                    <mxGeometry width="20" height="50" as="geometry"/>
                </mxCell>
                <mxCell id="374" value="1" style="rounded=0;whiteSpace=wrap;html=1;" vertex="1" parent="372">
                    <mxGeometry x="20" width="20" height="50" as="geometry"/>
                </mxCell>
                <mxCell id="375" value="2" style="rounded=0;whiteSpace=wrap;html=1;" vertex="1" parent="372">
                    <mxGeometry x="40" width="20" height="50" as="geometry"/>
                </mxCell>
                <mxCell id="376" value="3" style="rounded=0;whiteSpace=wrap;html=1;" vertex="1" parent="372">
                    <mxGeometry x="60" width="20" height="50" as="geometry"/>
                </mxCell>
                <mxCell id="377" value="4" style="rounded=0;whiteSpace=wrap;html=1;" vertex="1" parent="372">
                    <mxGeometry x="80" width="20" height="50" as="geometry"/>
                </mxCell>
                <mxCell id="378" value="5" style="rounded=0;whiteSpace=wrap;html=1;" vertex="1" parent="372">
                    <mxGeometry x="100" width="20" height="50" as="geometry"/>
                </mxCell>
                <mxCell id="379" value="6" style="rounded=0;whiteSpace=wrap;html=1;" vertex="1" parent="372">
                    <mxGeometry x="120" width="20" height="50" as="geometry"/>
                </mxCell>
                <mxCell id="380" value="7" style="rounded=0;whiteSpace=wrap;html=1;" vertex="1" parent="372">
                    <mxGeometry x="140" width="20" height="50" as="geometry"/>
                </mxCell>
                <mxCell id="381" value="8" style="rounded=0;whiteSpace=wrap;html=1;" vertex="1" parent="372">
                    <mxGeometry x="160" width="20" height="50" as="geometry"/>
                </mxCell>
                <mxCell id="382" value="9" style="rounded=0;whiteSpace=wrap;html=1;" vertex="1" parent="372">
                    <mxGeometry x="180" width="20" height="50" as="geometry"/>
                </mxCell>
                <mxCell id="383" value="10" style="rounded=0;whiteSpace=wrap;html=1;" vertex="1" parent="372">
                    <mxGeometry x="200" width="20" height="50" as="geometry"/>
                </mxCell>
                <mxCell id="384" value="11" style="rounded=0;whiteSpace=wrap;html=1;" vertex="1" parent="372">
                    <mxGeometry x="220" width="20" height="50" as="geometry"/>
                </mxCell>
                <mxCell id="385" value="12" style="rounded=0;whiteSpace=wrap;html=1;" vertex="1" parent="372">
                    <mxGeometry x="240" width="20" height="50" as="geometry"/>
                </mxCell>
                <mxCell id="386" value="13" style="rounded=0;whiteSpace=wrap;html=1;" vertex="1" parent="372">
                    <mxGeometry x="260" width="20" height="50" as="geometry"/>
                </mxCell>
                <mxCell id="387" value="14" style="rounded=0;whiteSpace=wrap;html=1;" vertex="1" parent="372">
                    <mxGeometry x="280" width="20" height="50" as="geometry"/>
                </mxCell>
                <mxCell id="388" value="15" style="rounded=0;whiteSpace=wrap;html=1;" vertex="1" parent="372">
                    <mxGeometry x="300" width="20" height="50" as="geometry"/>
                </mxCell>
                <mxCell id="389" value="128 bit (16byte)" style="text;html=1;strokeColor=none;fillColor=none;align=center;verticalAlign=middle;whiteSpace=wrap;rounded=0;" vertex="1" parent="371">
                    <mxGeometry x="330" y="10" width="60" height="30" as="geometry"/>
                </mxCell>
                <mxCell id="390" value="" style="group" vertex="1" connectable="0" parent="370">
                    <mxGeometry x="360" y="70" width="390" height="50" as="geometry"/>
                </mxCell>
                <mxCell id="391" value="" style="group" vertex="1" connectable="0" parent="390">
                    <mxGeometry width="320" height="50" as="geometry"/>
                </mxCell>
                <mxCell id="392" value="0" style="rounded=0;whiteSpace=wrap;html=1;" vertex="1" parent="391">
                    <mxGeometry width="20" height="50" as="geometry"/>
                </mxCell>
                <mxCell id="393" value="1" style="rounded=0;whiteSpace=wrap;html=1;" vertex="1" parent="391">
                    <mxGeometry x="20" width="20" height="50" as="geometry"/>
                </mxCell>
                <mxCell id="394" value="2" style="rounded=0;whiteSpace=wrap;html=1;" vertex="1" parent="391">
                    <mxGeometry x="40" width="20" height="50" as="geometry"/>
                </mxCell>
                <mxCell id="395" value="3" style="rounded=0;whiteSpace=wrap;html=1;" vertex="1" parent="391">
                    <mxGeometry x="60" width="20" height="50" as="geometry"/>
                </mxCell>
                <mxCell id="396" value="4" style="rounded=0;whiteSpace=wrap;html=1;" vertex="1" parent="391">
                    <mxGeometry x="80" width="20" height="50" as="geometry"/>
                </mxCell>
                <mxCell id="397" value="5" style="rounded=0;whiteSpace=wrap;html=1;" vertex="1" parent="391">
                    <mxGeometry x="100" width="20" height="50" as="geometry"/>
                </mxCell>
                <mxCell id="398" value="6" style="rounded=0;whiteSpace=wrap;html=1;" vertex="1" parent="391">
                    <mxGeometry x="120" width="20" height="50" as="geometry"/>
                </mxCell>
                <mxCell id="399" value="7" style="rounded=0;whiteSpace=wrap;html=1;" vertex="1" parent="391">
                    <mxGeometry x="140" width="20" height="50" as="geometry"/>
                </mxCell>
                <mxCell id="400" value="8" style="rounded=0;whiteSpace=wrap;html=1;" vertex="1" parent="391">
                    <mxGeometry x="160" width="20" height="50" as="geometry"/>
                </mxCell>
                <mxCell id="401" value="9" style="rounded=0;whiteSpace=wrap;html=1;" vertex="1" parent="391">
                    <mxGeometry x="180" width="20" height="50" as="geometry"/>
                </mxCell>
                <mxCell id="402" value="10" style="rounded=0;whiteSpace=wrap;html=1;" vertex="1" parent="391">
                    <mxGeometry x="200" width="20" height="50" as="geometry"/>
                </mxCell>
                <mxCell id="403" value="11" style="rounded=0;whiteSpace=wrap;html=1;" vertex="1" parent="391">
                    <mxGeometry x="220" width="20" height="50" as="geometry"/>
                </mxCell>
                <mxCell id="404" value="12" style="rounded=0;whiteSpace=wrap;html=1;" vertex="1" parent="391">
                    <mxGeometry x="240" width="20" height="50" as="geometry"/>
                </mxCell>
                <mxCell id="405" value="13" style="rounded=0;whiteSpace=wrap;html=1;" vertex="1" parent="391">
                    <mxGeometry x="260" width="20" height="50" as="geometry"/>
                </mxCell>
                <mxCell id="406" value="14" style="rounded=0;whiteSpace=wrap;html=1;" vertex="1" parent="391">
                    <mxGeometry x="280" width="20" height="50" as="geometry"/>
                </mxCell>
                <mxCell id="407" value="15" style="rounded=0;whiteSpace=wrap;html=1;" vertex="1" parent="391">
                    <mxGeometry x="300" width="20" height="50" as="geometry"/>
                </mxCell>
                <mxCell id="408" value="128 bit (16byte)" style="text;html=1;strokeColor=none;fillColor=none;align=center;verticalAlign=middle;whiteSpace=wrap;rounded=0;" vertex="1" parent="390">
                    <mxGeometry x="330" y="10" width="60" height="30" as="geometry"/>
                </mxCell>
                <mxCell id="409" value="" style="group" vertex="1" connectable="0" parent="370">
                    <mxGeometry x="360" y="140" width="390" height="50" as="geometry"/>
                </mxCell>
                <mxCell id="410" value="" style="group" vertex="1" connectable="0" parent="409">
                    <mxGeometry width="320" height="50" as="geometry"/>
                </mxCell>
                <mxCell id="411" value="0" style="rounded=0;whiteSpace=wrap;html=1;" vertex="1" parent="410">
                    <mxGeometry width="20" height="50" as="geometry"/>
                </mxCell>
                <mxCell id="412" value="1" style="rounded=0;whiteSpace=wrap;html=1;" vertex="1" parent="410">
                    <mxGeometry x="20" width="20" height="50" as="geometry"/>
                </mxCell>
                <mxCell id="413" value="2" style="rounded=0;whiteSpace=wrap;html=1;" vertex="1" parent="410">
                    <mxGeometry x="40" width="20" height="50" as="geometry"/>
                </mxCell>
                <mxCell id="414" value="3" style="rounded=0;whiteSpace=wrap;html=1;" vertex="1" parent="410">
                    <mxGeometry x="60" width="20" height="50" as="geometry"/>
                </mxCell>
                <mxCell id="415" value="4" style="rounded=0;whiteSpace=wrap;html=1;" vertex="1" parent="410">
                    <mxGeometry x="80" width="20" height="50" as="geometry"/>
                </mxCell>
                <mxCell id="416" value="5" style="rounded=0;whiteSpace=wrap;html=1;" vertex="1" parent="410">
                    <mxGeometry x="100" width="20" height="50" as="geometry"/>
                </mxCell>
                <mxCell id="417" value="6" style="rounded=0;whiteSpace=wrap;html=1;" vertex="1" parent="410">
                    <mxGeometry x="120" width="20" height="50" as="geometry"/>
                </mxCell>
                <mxCell id="418" value="7" style="rounded=0;whiteSpace=wrap;html=1;" vertex="1" parent="410">
                    <mxGeometry x="140" width="20" height="50" as="geometry"/>
                </mxCell>
                <mxCell id="419" value="8" style="rounded=0;whiteSpace=wrap;html=1;" vertex="1" parent="410">
                    <mxGeometry x="160" width="20" height="50" as="geometry"/>
                </mxCell>
                <mxCell id="420" value="9" style="rounded=0;whiteSpace=wrap;html=1;" vertex="1" parent="410">
                    <mxGeometry x="180" width="20" height="50" as="geometry"/>
                </mxCell>
                <mxCell id="421" value="10" style="rounded=0;whiteSpace=wrap;html=1;" vertex="1" parent="410">
                    <mxGeometry x="200" width="20" height="50" as="geometry"/>
                </mxCell>
                <mxCell id="422" value="11" style="rounded=0;whiteSpace=wrap;html=1;" vertex="1" parent="410">
                    <mxGeometry x="220" width="20" height="50" as="geometry"/>
                </mxCell>
                <mxCell id="423" value="12" style="rounded=0;whiteSpace=wrap;html=1;" vertex="1" parent="410">
                    <mxGeometry x="240" width="20" height="50" as="geometry"/>
                </mxCell>
                <mxCell id="424" value="13" style="rounded=0;whiteSpace=wrap;html=1;" vertex="1" parent="410">
                    <mxGeometry x="260" width="20" height="50" as="geometry"/>
                </mxCell>
                <mxCell id="425" value="14" style="rounded=0;whiteSpace=wrap;html=1;" vertex="1" parent="410">
                    <mxGeometry x="280" width="20" height="50" as="geometry"/>
                </mxCell>
                <mxCell id="426" value="15" style="rounded=0;whiteSpace=wrap;html=1;" vertex="1" parent="410">
                    <mxGeometry x="300" width="20" height="50" as="geometry"/>
                </mxCell>
                <mxCell id="427" value="128 bit (16byte)" style="text;html=1;strokeColor=none;fillColor=none;align=center;verticalAlign=middle;whiteSpace=wrap;rounded=0;" vertex="1" parent="409">
                    <mxGeometry x="330" y="10" width="60" height="30" as="geometry"/>
                </mxCell>
                <mxCell id="428" value="" style="group" vertex="1" connectable="0" parent="370">
                    <mxGeometry x="360" y="210" width="390" height="50" as="geometry"/>
                </mxCell>
                <mxCell id="429" value="" style="group" vertex="1" connectable="0" parent="428">
                    <mxGeometry width="320" height="50" as="geometry"/>
                </mxCell>
                <mxCell id="430" value="0" style="rounded=0;whiteSpace=wrap;html=1;" vertex="1" parent="429">
                    <mxGeometry width="20" height="50" as="geometry"/>
                </mxCell>
                <mxCell id="431" value="1" style="rounded=0;whiteSpace=wrap;html=1;" vertex="1" parent="429">
                    <mxGeometry x="20" width="20" height="50" as="geometry"/>
                </mxCell>
                <mxCell id="432" value="2" style="rounded=0;whiteSpace=wrap;html=1;" vertex="1" parent="429">
                    <mxGeometry x="40" width="20" height="50" as="geometry"/>
                </mxCell>
                <mxCell id="433" value="3" style="rounded=0;whiteSpace=wrap;html=1;" vertex="1" parent="429">
                    <mxGeometry x="60" width="20" height="50" as="geometry"/>
                </mxCell>
                <mxCell id="434" value="4" style="rounded=0;whiteSpace=wrap;html=1;" vertex="1" parent="429">
                    <mxGeometry x="80" width="20" height="50" as="geometry"/>
                </mxCell>
                <mxCell id="435" value="5" style="rounded=0;whiteSpace=wrap;html=1;" vertex="1" parent="429">
                    <mxGeometry x="100" width="20" height="50" as="geometry"/>
                </mxCell>
                <mxCell id="436" value="6" style="rounded=0;whiteSpace=wrap;html=1;" vertex="1" parent="429">
                    <mxGeometry x="120" width="20" height="50" as="geometry"/>
                </mxCell>
                <mxCell id="437" value="7" style="rounded=0;whiteSpace=wrap;html=1;" vertex="1" parent="429">
                    <mxGeometry x="140" width="20" height="50" as="geometry"/>
                </mxCell>
                <mxCell id="438" value="8" style="rounded=0;whiteSpace=wrap;html=1;" vertex="1" parent="429">
                    <mxGeometry x="160" width="20" height="50" as="geometry"/>
                </mxCell>
                <mxCell id="439" value="9" style="rounded=0;whiteSpace=wrap;html=1;" vertex="1" parent="429">
                    <mxGeometry x="180" width="20" height="50" as="geometry"/>
                </mxCell>
                <mxCell id="440" value="10" style="rounded=0;whiteSpace=wrap;html=1;" vertex="1" parent="429">
                    <mxGeometry x="200" width="20" height="50" as="geometry"/>
                </mxCell>
                <mxCell id="441" value="11" style="rounded=0;whiteSpace=wrap;html=1;" vertex="1" parent="429">
                    <mxGeometry x="220" width="20" height="50" as="geometry"/>
                </mxCell>
                <mxCell id="442" value="12" style="rounded=0;whiteSpace=wrap;html=1;" vertex="1" parent="429">
                    <mxGeometry x="240" width="20" height="50" as="geometry"/>
                </mxCell>
                <mxCell id="443" value="13" style="rounded=0;whiteSpace=wrap;html=1;" vertex="1" parent="429">
                    <mxGeometry x="260" width="20" height="50" as="geometry"/>
                </mxCell>
                <mxCell id="444" value="14" style="rounded=0;whiteSpace=wrap;html=1;" vertex="1" parent="429">
                    <mxGeometry x="280" width="20" height="50" as="geometry"/>
                </mxCell>
                <mxCell id="445" value="15" style="rounded=0;whiteSpace=wrap;html=1;" vertex="1" parent="429">
                    <mxGeometry x="300" width="20" height="50" as="geometry"/>
                </mxCell>
                <mxCell id="446" value="128 bit (16byte)" style="text;html=1;strokeColor=none;fillColor=none;align=center;verticalAlign=middle;whiteSpace=wrap;rounded=0;" vertex="1" parent="428">
                    <mxGeometry x="330" y="10" width="60" height="30" as="geometry"/>
                </mxCell>
                <mxCell id="447" value="" style="group" vertex="1" connectable="0" parent="370">
                    <mxGeometry x="360" y="280" width="390" height="50" as="geometry"/>
                </mxCell>
                <mxCell id="448" value="" style="group" vertex="1" connectable="0" parent="447">
                    <mxGeometry width="320" height="50" as="geometry"/>
                </mxCell>
                <mxCell id="449" value="0" style="rounded=0;whiteSpace=wrap;html=1;" vertex="1" parent="448">
                    <mxGeometry width="20" height="50" as="geometry"/>
                </mxCell>
                <mxCell id="450" value="1" style="rounded=0;whiteSpace=wrap;html=1;" vertex="1" parent="448">
                    <mxGeometry x="20" width="20" height="50" as="geometry"/>
                </mxCell>
                <mxCell id="451" value="2" style="rounded=0;whiteSpace=wrap;html=1;" vertex="1" parent="448">
                    <mxGeometry x="40" width="20" height="50" as="geometry"/>
                </mxCell>
                <mxCell id="452" value="3" style="rounded=0;whiteSpace=wrap;html=1;" vertex="1" parent="448">
                    <mxGeometry x="60" width="20" height="50" as="geometry"/>
                </mxCell>
                <mxCell id="453" value="4" style="rounded=0;whiteSpace=wrap;html=1;" vertex="1" parent="448">
                    <mxGeometry x="80" width="20" height="50" as="geometry"/>
                </mxCell>
                <mxCell id="454" value="5" style="rounded=0;whiteSpace=wrap;html=1;" vertex="1" parent="448">
                    <mxGeometry x="100" width="20" height="50" as="geometry"/>
                </mxCell>
                <mxCell id="455" value="6" style="rounded=0;whiteSpace=wrap;html=1;" vertex="1" parent="448">
                    <mxGeometry x="120" width="20" height="50" as="geometry"/>
                </mxCell>
                <mxCell id="456" value="7" style="rounded=0;whiteSpace=wrap;html=1;" vertex="1" parent="448">
                    <mxGeometry x="140" width="20" height="50" as="geometry"/>
                </mxCell>
                <mxCell id="457" value="8" style="rounded=0;whiteSpace=wrap;html=1;" vertex="1" parent="448">
                    <mxGeometry x="160" width="20" height="50" as="geometry"/>
                </mxCell>
                <mxCell id="458" value="9" style="rounded=0;whiteSpace=wrap;html=1;" vertex="1" parent="448">
                    <mxGeometry x="180" width="20" height="50" as="geometry"/>
                </mxCell>
                <mxCell id="459" value="10" style="rounded=0;whiteSpace=wrap;html=1;" vertex="1" parent="448">
                    <mxGeometry x="200" width="20" height="50" as="geometry"/>
                </mxCell>
                <mxCell id="460" value="11" style="rounded=0;whiteSpace=wrap;html=1;" vertex="1" parent="448">
                    <mxGeometry x="220" width="20" height="50" as="geometry"/>
                </mxCell>
                <mxCell id="461" value="12" style="rounded=0;whiteSpace=wrap;html=1;" vertex="1" parent="448">
                    <mxGeometry x="240" width="20" height="50" as="geometry"/>
                </mxCell>
                <mxCell id="462" value="13" style="rounded=0;whiteSpace=wrap;html=1;" vertex="1" parent="448">
                    <mxGeometry x="260" width="20" height="50" as="geometry"/>
                </mxCell>
                <mxCell id="463" value="14" style="rounded=0;whiteSpace=wrap;html=1;" vertex="1" parent="448">
                    <mxGeometry x="280" width="20" height="50" as="geometry"/>
                </mxCell>
                <mxCell id="464" value="15" style="rounded=0;whiteSpace=wrap;html=1;" vertex="1" parent="448">
                    <mxGeometry x="300" width="20" height="50" as="geometry"/>
                </mxCell>
                <mxCell id="465" value="128 bit (16byte)" style="text;html=1;strokeColor=none;fillColor=none;align=center;verticalAlign=middle;whiteSpace=wrap;rounded=0;" vertex="1" parent="447">
                    <mxGeometry x="330" y="10" width="60" height="30" as="geometry"/>
                </mxCell>
                <mxCell id="466" value="" style="group" vertex="1" connectable="0" parent="370">
                    <mxGeometry x="360" y="350" width="390" height="50" as="geometry"/>
                </mxCell>
                <mxCell id="467" value="" style="group" vertex="1" connectable="0" parent="466">
                    <mxGeometry width="320" height="50" as="geometry"/>
                </mxCell>
                <mxCell id="468" value="0" style="rounded=0;whiteSpace=wrap;html=1;" vertex="1" parent="467">
                    <mxGeometry width="20" height="50" as="geometry"/>
                </mxCell>
                <mxCell id="469" value="1" style="rounded=0;whiteSpace=wrap;html=1;" vertex="1" parent="467">
                    <mxGeometry x="20" width="20" height="50" as="geometry"/>
                </mxCell>
                <mxCell id="470" value="2" style="rounded=0;whiteSpace=wrap;html=1;" vertex="1" parent="467">
                    <mxGeometry x="40" width="20" height="50" as="geometry"/>
                </mxCell>
                <mxCell id="471" value="3" style="rounded=0;whiteSpace=wrap;html=1;" vertex="1" parent="467">
                    <mxGeometry x="60" width="20" height="50" as="geometry"/>
                </mxCell>
                <mxCell id="472" value="4" style="rounded=0;whiteSpace=wrap;html=1;" vertex="1" parent="467">
                    <mxGeometry x="80" width="20" height="50" as="geometry"/>
                </mxCell>
                <mxCell id="473" value="5" style="rounded=0;whiteSpace=wrap;html=1;" vertex="1" parent="467">
                    <mxGeometry x="100" width="20" height="50" as="geometry"/>
                </mxCell>
                <mxCell id="474" value="6" style="rounded=0;whiteSpace=wrap;html=1;" vertex="1" parent="467">
                    <mxGeometry x="120" width="20" height="50" as="geometry"/>
                </mxCell>
                <mxCell id="475" value="7" style="rounded=0;whiteSpace=wrap;html=1;" vertex="1" parent="467">
                    <mxGeometry x="140" width="20" height="50" as="geometry"/>
                </mxCell>
                <mxCell id="476" value="8" style="rounded=0;whiteSpace=wrap;html=1;" vertex="1" parent="467">
                    <mxGeometry x="160" width="20" height="50" as="geometry"/>
                </mxCell>
                <mxCell id="477" value="9" style="rounded=0;whiteSpace=wrap;html=1;" vertex="1" parent="467">
                    <mxGeometry x="180" width="20" height="50" as="geometry"/>
                </mxCell>
                <mxCell id="478" value="10" style="rounded=0;whiteSpace=wrap;html=1;" vertex="1" parent="467">
                    <mxGeometry x="200" width="20" height="50" as="geometry"/>
                </mxCell>
                <mxCell id="479" value="11" style="rounded=0;whiteSpace=wrap;html=1;" vertex="1" parent="467">
                    <mxGeometry x="220" width="20" height="50" as="geometry"/>
                </mxCell>
                <mxCell id="480" value="12" style="rounded=0;whiteSpace=wrap;html=1;" vertex="1" parent="467">
                    <mxGeometry x="240" width="20" height="50" as="geometry"/>
                </mxCell>
                <mxCell id="481" value="13" style="rounded=0;whiteSpace=wrap;html=1;" vertex="1" parent="467">
                    <mxGeometry x="260" width="20" height="50" as="geometry"/>
                </mxCell>
                <mxCell id="482" value="14" style="rounded=0;whiteSpace=wrap;html=1;" vertex="1" parent="467">
                    <mxGeometry x="280" width="20" height="50" as="geometry"/>
                </mxCell>
                <mxCell id="483" value="15" style="rounded=0;whiteSpace=wrap;html=1;" vertex="1" parent="467">
                    <mxGeometry x="300" width="20" height="50" as="geometry"/>
                </mxCell>
                <mxCell id="484" value="128 bit (16byte)" style="text;html=1;strokeColor=none;fillColor=none;align=center;verticalAlign=middle;whiteSpace=wrap;rounded=0;" vertex="1" parent="466">
                    <mxGeometry x="330" y="10" width="60" height="30" as="geometry"/>
                </mxCell>
                <mxCell id="485" value="sram_addr&lt;br&gt;0" style="text;html=1;strokeColor=none;fillColor=none;align=center;verticalAlign=middle;whiteSpace=wrap;rounded=0;" vertex="1" parent="370">
                    <mxGeometry x="760" y="10" width="60" height="30" as="geometry"/>
                </mxCell>
                <mxCell id="486" value="sram_addr&lt;br&gt;1" style="text;html=1;strokeColor=none;fillColor=none;align=center;verticalAlign=middle;whiteSpace=wrap;rounded=0;" vertex="1" parent="370">
                    <mxGeometry x="760" y="80" width="60" height="30" as="geometry"/>
                </mxCell>
                <mxCell id="487" value="sram_addr&lt;br&gt;2" style="text;html=1;strokeColor=none;fillColor=none;align=center;verticalAlign=middle;whiteSpace=wrap;rounded=0;" vertex="1" parent="370">
                    <mxGeometry x="760" y="150" width="60" height="30" as="geometry"/>
                </mxCell>
                <mxCell id="488" value="sram_addr&lt;br&gt;3" style="text;html=1;strokeColor=none;fillColor=none;align=center;verticalAlign=middle;whiteSpace=wrap;rounded=0;" vertex="1" parent="370">
                    <mxGeometry x="760" y="220" width="60" height="30" as="geometry"/>
                </mxCell>
                <mxCell id="489" value="sram_addr&lt;br&gt;4" style="text;html=1;strokeColor=none;fillColor=none;align=center;verticalAlign=middle;whiteSpace=wrap;rounded=0;" vertex="1" parent="370">
                    <mxGeometry x="760" y="290" width="60" height="30" as="geometry"/>
                </mxCell>
                <mxCell id="490" value="sram_addr&lt;br&gt;5" style="text;html=1;strokeColor=none;fillColor=none;align=center;verticalAlign=middle;whiteSpace=wrap;rounded=0;" vertex="1" parent="370">
                    <mxGeometry x="760" y="360" width="60" height="30" as="geometry"/>
                </mxCell>
                <mxCell id="491" value="" style="group" vertex="1" connectable="0" parent="370">
                    <mxGeometry x="360" y="420" width="460" height="50" as="geometry"/>
                </mxCell>
                <mxCell id="492" value="" style="group" vertex="1" connectable="0" parent="491">
                    <mxGeometry width="390" height="50" as="geometry"/>
                </mxCell>
                <mxCell id="493" value="" style="group" vertex="1" connectable="0" parent="492">
                    <mxGeometry width="320" height="50" as="geometry"/>
                </mxCell>
                <mxCell id="494" value="0" style="rounded=0;whiteSpace=wrap;html=1;" vertex="1" parent="493">
                    <mxGeometry width="20" height="50" as="geometry"/>
                </mxCell>
                <mxCell id="495" value="1" style="rounded=0;whiteSpace=wrap;html=1;" vertex="1" parent="493">
                    <mxGeometry x="20" width="20" height="50" as="geometry"/>
                </mxCell>
                <mxCell id="496" value="2" style="rounded=0;whiteSpace=wrap;html=1;" vertex="1" parent="493">
                    <mxGeometry x="40" width="20" height="50" as="geometry"/>
                </mxCell>
                <mxCell id="497" value="3" style="rounded=0;whiteSpace=wrap;html=1;" vertex="1" parent="493">
                    <mxGeometry x="60" width="20" height="50" as="geometry"/>
                </mxCell>
                <mxCell id="498" value="4" style="rounded=0;whiteSpace=wrap;html=1;" vertex="1" parent="493">
                    <mxGeometry x="80" width="20" height="50" as="geometry"/>
                </mxCell>
                <mxCell id="499" value="5" style="rounded=0;whiteSpace=wrap;html=1;" vertex="1" parent="493">
                    <mxGeometry x="100" width="20" height="50" as="geometry"/>
                </mxCell>
                <mxCell id="500" value="6" style="rounded=0;whiteSpace=wrap;html=1;" vertex="1" parent="493">
                    <mxGeometry x="120" width="20" height="50" as="geometry"/>
                </mxCell>
                <mxCell id="501" value="7" style="rounded=0;whiteSpace=wrap;html=1;" vertex="1" parent="493">
                    <mxGeometry x="140" width="20" height="50" as="geometry"/>
                </mxCell>
                <mxCell id="502" value="8" style="rounded=0;whiteSpace=wrap;html=1;" vertex="1" parent="493">
                    <mxGeometry x="160" width="20" height="50" as="geometry"/>
                </mxCell>
                <mxCell id="503" value="9" style="rounded=0;whiteSpace=wrap;html=1;" vertex="1" parent="493">
                    <mxGeometry x="180" width="20" height="50" as="geometry"/>
                </mxCell>
                <mxCell id="504" value="10" style="rounded=0;whiteSpace=wrap;html=1;" vertex="1" parent="493">
                    <mxGeometry x="200" width="20" height="50" as="geometry"/>
                </mxCell>
                <mxCell id="505" value="11" style="rounded=0;whiteSpace=wrap;html=1;" vertex="1" parent="493">
                    <mxGeometry x="220" width="20" height="50" as="geometry"/>
                </mxCell>
                <mxCell id="506" value="12" style="rounded=0;whiteSpace=wrap;html=1;" vertex="1" parent="493">
                    <mxGeometry x="240" width="20" height="50" as="geometry"/>
                </mxCell>
                <mxCell id="507" value="13" style="rounded=0;whiteSpace=wrap;html=1;" vertex="1" parent="493">
                    <mxGeometry x="260" width="20" height="50" as="geometry"/>
                </mxCell>
                <mxCell id="508" value="14" style="rounded=0;whiteSpace=wrap;html=1;" vertex="1" parent="493">
                    <mxGeometry x="280" width="20" height="50" as="geometry"/>
                </mxCell>
                <mxCell id="509" value="15" style="rounded=0;whiteSpace=wrap;html=1;" vertex="1" parent="493">
                    <mxGeometry x="300" width="20" height="50" as="geometry"/>
                </mxCell>
                <mxCell id="510" value="128 bit (16byte)" style="text;html=1;strokeColor=none;fillColor=none;align=center;verticalAlign=middle;whiteSpace=wrap;rounded=0;" vertex="1" parent="492">
                    <mxGeometry x="330" y="10" width="60" height="30" as="geometry"/>
                </mxCell>
                <mxCell id="511" value="sram_addr&lt;br&gt;6" style="text;html=1;strokeColor=none;fillColor=none;align=center;verticalAlign=middle;whiteSpace=wrap;rounded=0;" vertex="1" parent="491">
                    <mxGeometry x="400" y="10" width="60" height="30" as="geometry"/>
                </mxCell>
                <mxCell id="512" value="" style="group" vertex="1" connectable="0" parent="370">
                    <mxGeometry x="360" y="490" width="460" height="50" as="geometry"/>
                </mxCell>
                <mxCell id="513" value="" style="group" vertex="1" connectable="0" parent="512">
                    <mxGeometry width="390" height="50" as="geometry"/>
                </mxCell>
                <mxCell id="514" value="" style="group" vertex="1" connectable="0" parent="513">
                    <mxGeometry width="320" height="50" as="geometry"/>
                </mxCell>
                <mxCell id="515" value="0" style="rounded=0;whiteSpace=wrap;html=1;" vertex="1" parent="514">
                    <mxGeometry width="20" height="50" as="geometry"/>
                </mxCell>
                <mxCell id="516" value="1" style="rounded=0;whiteSpace=wrap;html=1;" vertex="1" parent="514">
                    <mxGeometry x="20" width="20" height="50" as="geometry"/>
                </mxCell>
                <mxCell id="517" value="2" style="rounded=0;whiteSpace=wrap;html=1;" vertex="1" parent="514">
                    <mxGeometry x="40" width="20" height="50" as="geometry"/>
                </mxCell>
                <mxCell id="518" value="3" style="rounded=0;whiteSpace=wrap;html=1;" vertex="1" parent="514">
                    <mxGeometry x="60" width="20" height="50" as="geometry"/>
                </mxCell>
                <mxCell id="519" value="4" style="rounded=0;whiteSpace=wrap;html=1;" vertex="1" parent="514">
                    <mxGeometry x="80" width="20" height="50" as="geometry"/>
                </mxCell>
                <mxCell id="520" value="5" style="rounded=0;whiteSpace=wrap;html=1;" vertex="1" parent="514">
                    <mxGeometry x="100" width="20" height="50" as="geometry"/>
                </mxCell>
                <mxCell id="521" value="6" style="rounded=0;whiteSpace=wrap;html=1;" vertex="1" parent="514">
                    <mxGeometry x="120" width="20" height="50" as="geometry"/>
                </mxCell>
                <mxCell id="522" value="7" style="rounded=0;whiteSpace=wrap;html=1;" vertex="1" parent="514">
                    <mxGeometry x="140" width="20" height="50" as="geometry"/>
                </mxCell>
                <mxCell id="523" value="8" style="rounded=0;whiteSpace=wrap;html=1;" vertex="1" parent="514">
                    <mxGeometry x="160" width="20" height="50" as="geometry"/>
                </mxCell>
                <mxCell id="524" value="9" style="rounded=0;whiteSpace=wrap;html=1;" vertex="1" parent="514">
                    <mxGeometry x="180" width="20" height="50" as="geometry"/>
                </mxCell>
                <mxCell id="525" value="10" style="rounded=0;whiteSpace=wrap;html=1;" vertex="1" parent="514">
                    <mxGeometry x="200" width="20" height="50" as="geometry"/>
                </mxCell>
                <mxCell id="526" value="11" style="rounded=0;whiteSpace=wrap;html=1;" vertex="1" parent="514">
                    <mxGeometry x="220" width="20" height="50" as="geometry"/>
                </mxCell>
                <mxCell id="527" value="12" style="rounded=0;whiteSpace=wrap;html=1;" vertex="1" parent="514">
                    <mxGeometry x="240" width="20" height="50" as="geometry"/>
                </mxCell>
                <mxCell id="528" value="13" style="rounded=0;whiteSpace=wrap;html=1;" vertex="1" parent="514">
                    <mxGeometry x="260" width="20" height="50" as="geometry"/>
                </mxCell>
                <mxCell id="529" value="14" style="rounded=0;whiteSpace=wrap;html=1;" vertex="1" parent="514">
                    <mxGeometry x="280" width="20" height="50" as="geometry"/>
                </mxCell>
                <mxCell id="530" value="15" style="rounded=0;whiteSpace=wrap;html=1;" vertex="1" parent="514">
                    <mxGeometry x="300" width="20" height="50" as="geometry"/>
                </mxCell>
                <mxCell id="531" value="128 bit (16byte)" style="text;html=1;strokeColor=none;fillColor=none;align=center;verticalAlign=middle;whiteSpace=wrap;rounded=0;" vertex="1" parent="513">
                    <mxGeometry x="330" y="10" width="60" height="30" as="geometry"/>
                </mxCell>
                <mxCell id="532" value="sram_addr&lt;br&gt;7" style="text;html=1;strokeColor=none;fillColor=none;align=center;verticalAlign=middle;whiteSpace=wrap;rounded=0;" vertex="1" parent="512">
                    <mxGeometry x="400" y="10" width="60" height="30" as="geometry"/>
                </mxCell>
                <mxCell id="533" value="" style="shape=curlyBracket;whiteSpace=wrap;html=1;rounded=1;size=0.3;" vertex="1" parent="370">
                    <mxGeometry x="330" y="5" width="20" height="525" as="geometry"/>
                </mxCell>
                <mxCell id="534" value="CACHE block(128Byte)" style="shape=ext;double=1;rounded=0;whiteSpace=wrap;html=1;fontSize=17;" vertex="1" parent="370">
                    <mxGeometry y="250" width="280" height="50" as="geometry"/>
                </mxCell>
                <mxCell id="535" value="" style="group" vertex="1" connectable="0" parent="1">
                    <mxGeometry x="240" y="2680" width="820" height="540" as="geometry"/>
                </mxCell>
                <mxCell id="536" value="" style="group" vertex="1" connectable="0" parent="535">
                    <mxGeometry x="360" width="390" height="50" as="geometry"/>
                </mxCell>
                <mxCell id="537" value="" style="group" vertex="1" connectable="0" parent="536">
                    <mxGeometry width="320" height="50" as="geometry"/>
                </mxCell>
                <mxCell id="538" value="0" style="rounded=0;whiteSpace=wrap;html=1;" vertex="1" parent="537">
                    <mxGeometry width="20" height="50" as="geometry"/>
                </mxCell>
                <mxCell id="539" value="1" style="rounded=0;whiteSpace=wrap;html=1;" vertex="1" parent="537">
                    <mxGeometry x="20" width="20" height="50" as="geometry"/>
                </mxCell>
                <mxCell id="540" value="2" style="rounded=0;whiteSpace=wrap;html=1;" vertex="1" parent="537">
                    <mxGeometry x="40" width="20" height="50" as="geometry"/>
                </mxCell>
                <mxCell id="541" value="3" style="rounded=0;whiteSpace=wrap;html=1;" vertex="1" parent="537">
                    <mxGeometry x="60" width="20" height="50" as="geometry"/>
                </mxCell>
                <mxCell id="542" value="4" style="rounded=0;whiteSpace=wrap;html=1;" vertex="1" parent="537">
                    <mxGeometry x="80" width="20" height="50" as="geometry"/>
                </mxCell>
                <mxCell id="543" value="5" style="rounded=0;whiteSpace=wrap;html=1;" vertex="1" parent="537">
                    <mxGeometry x="100" width="20" height="50" as="geometry"/>
                </mxCell>
                <mxCell id="544" value="6" style="rounded=0;whiteSpace=wrap;html=1;" vertex="1" parent="537">
                    <mxGeometry x="120" width="20" height="50" as="geometry"/>
                </mxCell>
                <mxCell id="545" value="7" style="rounded=0;whiteSpace=wrap;html=1;" vertex="1" parent="537">
                    <mxGeometry x="140" width="20" height="50" as="geometry"/>
                </mxCell>
                <mxCell id="546" value="8" style="rounded=0;whiteSpace=wrap;html=1;" vertex="1" parent="537">
                    <mxGeometry x="160" width="20" height="50" as="geometry"/>
                </mxCell>
                <mxCell id="547" value="9" style="rounded=0;whiteSpace=wrap;html=1;" vertex="1" parent="537">
                    <mxGeometry x="180" width="20" height="50" as="geometry"/>
                </mxCell>
                <mxCell id="548" value="10" style="rounded=0;whiteSpace=wrap;html=1;" vertex="1" parent="537">
                    <mxGeometry x="200" width="20" height="50" as="geometry"/>
                </mxCell>
                <mxCell id="549" value="11" style="rounded=0;whiteSpace=wrap;html=1;" vertex="1" parent="537">
                    <mxGeometry x="220" width="20" height="50" as="geometry"/>
                </mxCell>
                <mxCell id="550" value="12" style="rounded=0;whiteSpace=wrap;html=1;" vertex="1" parent="537">
                    <mxGeometry x="240" width="20" height="50" as="geometry"/>
                </mxCell>
                <mxCell id="551" value="13" style="rounded=0;whiteSpace=wrap;html=1;" vertex="1" parent="537">
                    <mxGeometry x="260" width="20" height="50" as="geometry"/>
                </mxCell>
                <mxCell id="552" value="14" style="rounded=0;whiteSpace=wrap;html=1;" vertex="1" parent="537">
                    <mxGeometry x="280" width="20" height="50" as="geometry"/>
                </mxCell>
                <mxCell id="553" value="15" style="rounded=0;whiteSpace=wrap;html=1;" vertex="1" parent="537">
                    <mxGeometry x="300" width="20" height="50" as="geometry"/>
                </mxCell>
                <mxCell id="554" value="128 bit (16byte)" style="text;html=1;strokeColor=none;fillColor=none;align=center;verticalAlign=middle;whiteSpace=wrap;rounded=0;" vertex="1" parent="536">
                    <mxGeometry x="330" y="10" width="60" height="30" as="geometry"/>
                </mxCell>
                <mxCell id="555" value="" style="group" vertex="1" connectable="0" parent="535">
                    <mxGeometry x="360" y="70" width="390" height="50" as="geometry"/>
                </mxCell>
                <mxCell id="556" value="" style="group" vertex="1" connectable="0" parent="555">
                    <mxGeometry width="320" height="50" as="geometry"/>
                </mxCell>
                <mxCell id="557" value="0" style="rounded=0;whiteSpace=wrap;html=1;" vertex="1" parent="556">
                    <mxGeometry width="20" height="50" as="geometry"/>
                </mxCell>
                <mxCell id="558" value="1" style="rounded=0;whiteSpace=wrap;html=1;" vertex="1" parent="556">
                    <mxGeometry x="20" width="20" height="50" as="geometry"/>
                </mxCell>
                <mxCell id="559" value="2" style="rounded=0;whiteSpace=wrap;html=1;" vertex="1" parent="556">
                    <mxGeometry x="40" width="20" height="50" as="geometry"/>
                </mxCell>
                <mxCell id="560" value="3" style="rounded=0;whiteSpace=wrap;html=1;" vertex="1" parent="556">
                    <mxGeometry x="60" width="20" height="50" as="geometry"/>
                </mxCell>
                <mxCell id="561" value="4" style="rounded=0;whiteSpace=wrap;html=1;" vertex="1" parent="556">
                    <mxGeometry x="80" width="20" height="50" as="geometry"/>
                </mxCell>
                <mxCell id="562" value="5" style="rounded=0;whiteSpace=wrap;html=1;" vertex="1" parent="556">
                    <mxGeometry x="100" width="20" height="50" as="geometry"/>
                </mxCell>
                <mxCell id="563" value="6" style="rounded=0;whiteSpace=wrap;html=1;" vertex="1" parent="556">
                    <mxGeometry x="120" width="20" height="50" as="geometry"/>
                </mxCell>
                <mxCell id="564" value="7" style="rounded=0;whiteSpace=wrap;html=1;" vertex="1" parent="556">
                    <mxGeometry x="140" width="20" height="50" as="geometry"/>
                </mxCell>
                <mxCell id="565" value="8" style="rounded=0;whiteSpace=wrap;html=1;" vertex="1" parent="556">
                    <mxGeometry x="160" width="20" height="50" as="geometry"/>
                </mxCell>
                <mxCell id="566" value="9" style="rounded=0;whiteSpace=wrap;html=1;" vertex="1" parent="556">
                    <mxGeometry x="180" width="20" height="50" as="geometry"/>
                </mxCell>
                <mxCell id="567" value="10" style="rounded=0;whiteSpace=wrap;html=1;" vertex="1" parent="556">
                    <mxGeometry x="200" width="20" height="50" as="geometry"/>
                </mxCell>
                <mxCell id="568" value="11" style="rounded=0;whiteSpace=wrap;html=1;" vertex="1" parent="556">
                    <mxGeometry x="220" width="20" height="50" as="geometry"/>
                </mxCell>
                <mxCell id="569" value="12" style="rounded=0;whiteSpace=wrap;html=1;" vertex="1" parent="556">
                    <mxGeometry x="240" width="20" height="50" as="geometry"/>
                </mxCell>
                <mxCell id="570" value="13" style="rounded=0;whiteSpace=wrap;html=1;" vertex="1" parent="556">
                    <mxGeometry x="260" width="20" height="50" as="geometry"/>
                </mxCell>
                <mxCell id="571" value="14" style="rounded=0;whiteSpace=wrap;html=1;" vertex="1" parent="556">
                    <mxGeometry x="280" width="20" height="50" as="geometry"/>
                </mxCell>
                <mxCell id="572" value="15" style="rounded=0;whiteSpace=wrap;html=1;" vertex="1" parent="556">
                    <mxGeometry x="300" width="20" height="50" as="geometry"/>
                </mxCell>
                <mxCell id="573" value="128 bit (16byte)" style="text;html=1;strokeColor=none;fillColor=none;align=center;verticalAlign=middle;whiteSpace=wrap;rounded=0;" vertex="1" parent="555">
                    <mxGeometry x="330" y="10" width="60" height="30" as="geometry"/>
                </mxCell>
                <mxCell id="574" value="" style="group" vertex="1" connectable="0" parent="535">
                    <mxGeometry x="360" y="140" width="390" height="50" as="geometry"/>
                </mxCell>
                <mxCell id="575" value="" style="group" vertex="1" connectable="0" parent="574">
                    <mxGeometry width="320" height="50" as="geometry"/>
                </mxCell>
                <mxCell id="576" value="0" style="rounded=0;whiteSpace=wrap;html=1;" vertex="1" parent="575">
                    <mxGeometry width="20" height="50" as="geometry"/>
                </mxCell>
                <mxCell id="577" value="1" style="rounded=0;whiteSpace=wrap;html=1;" vertex="1" parent="575">
                    <mxGeometry x="20" width="20" height="50" as="geometry"/>
                </mxCell>
                <mxCell id="578" value="2" style="rounded=0;whiteSpace=wrap;html=1;" vertex="1" parent="575">
                    <mxGeometry x="40" width="20" height="50" as="geometry"/>
                </mxCell>
                <mxCell id="579" value="3" style="rounded=0;whiteSpace=wrap;html=1;" vertex="1" parent="575">
                    <mxGeometry x="60" width="20" height="50" as="geometry"/>
                </mxCell>
                <mxCell id="580" value="4" style="rounded=0;whiteSpace=wrap;html=1;" vertex="1" parent="575">
                    <mxGeometry x="80" width="20" height="50" as="geometry"/>
                </mxCell>
                <mxCell id="581" value="5" style="rounded=0;whiteSpace=wrap;html=1;" vertex="1" parent="575">
                    <mxGeometry x="100" width="20" height="50" as="geometry"/>
                </mxCell>
                <mxCell id="582" value="6" style="rounded=0;whiteSpace=wrap;html=1;" vertex="1" parent="575">
                    <mxGeometry x="120" width="20" height="50" as="geometry"/>
                </mxCell>
                <mxCell id="583" value="7" style="rounded=0;whiteSpace=wrap;html=1;" vertex="1" parent="575">
                    <mxGeometry x="140" width="20" height="50" as="geometry"/>
                </mxCell>
                <mxCell id="584" value="8" style="rounded=0;whiteSpace=wrap;html=1;" vertex="1" parent="575">
                    <mxGeometry x="160" width="20" height="50" as="geometry"/>
                </mxCell>
                <mxCell id="585" value="9" style="rounded=0;whiteSpace=wrap;html=1;" vertex="1" parent="575">
                    <mxGeometry x="180" width="20" height="50" as="geometry"/>
                </mxCell>
                <mxCell id="586" value="10" style="rounded=0;whiteSpace=wrap;html=1;" vertex="1" parent="575">
                    <mxGeometry x="200" width="20" height="50" as="geometry"/>
                </mxCell>
                <mxCell id="587" value="11" style="rounded=0;whiteSpace=wrap;html=1;" vertex="1" parent="575">
                    <mxGeometry x="220" width="20" height="50" as="geometry"/>
                </mxCell>
                <mxCell id="588" value="12" style="rounded=0;whiteSpace=wrap;html=1;" vertex="1" parent="575">
                    <mxGeometry x="240" width="20" height="50" as="geometry"/>
                </mxCell>
                <mxCell id="589" value="13" style="rounded=0;whiteSpace=wrap;html=1;" vertex="1" parent="575">
                    <mxGeometry x="260" width="20" height="50" as="geometry"/>
                </mxCell>
                <mxCell id="590" value="14" style="rounded=0;whiteSpace=wrap;html=1;" vertex="1" parent="575">
                    <mxGeometry x="280" width="20" height="50" as="geometry"/>
                </mxCell>
                <mxCell id="591" value="15" style="rounded=0;whiteSpace=wrap;html=1;" vertex="1" parent="575">
                    <mxGeometry x="300" width="20" height="50" as="geometry"/>
                </mxCell>
                <mxCell id="592" value="128 bit (16byte)" style="text;html=1;strokeColor=none;fillColor=none;align=center;verticalAlign=middle;whiteSpace=wrap;rounded=0;" vertex="1" parent="574">
                    <mxGeometry x="330" y="10" width="60" height="30" as="geometry"/>
                </mxCell>
                <mxCell id="593" value="" style="group" vertex="1" connectable="0" parent="535">
                    <mxGeometry x="360" y="210" width="390" height="50" as="geometry"/>
                </mxCell>
                <mxCell id="594" value="" style="group" vertex="1" connectable="0" parent="593">
                    <mxGeometry width="320" height="50" as="geometry"/>
                </mxCell>
                <mxCell id="595" value="0" style="rounded=0;whiteSpace=wrap;html=1;" vertex="1" parent="594">
                    <mxGeometry width="20" height="50" as="geometry"/>
                </mxCell>
                <mxCell id="596" value="1" style="rounded=0;whiteSpace=wrap;html=1;" vertex="1" parent="594">
                    <mxGeometry x="20" width="20" height="50" as="geometry"/>
                </mxCell>
                <mxCell id="597" value="2" style="rounded=0;whiteSpace=wrap;html=1;" vertex="1" parent="594">
                    <mxGeometry x="40" width="20" height="50" as="geometry"/>
                </mxCell>
                <mxCell id="598" value="3" style="rounded=0;whiteSpace=wrap;html=1;" vertex="1" parent="594">
                    <mxGeometry x="60" width="20" height="50" as="geometry"/>
                </mxCell>
                <mxCell id="599" value="4" style="rounded=0;whiteSpace=wrap;html=1;" vertex="1" parent="594">
                    <mxGeometry x="80" width="20" height="50" as="geometry"/>
                </mxCell>
                <mxCell id="600" value="5" style="rounded=0;whiteSpace=wrap;html=1;" vertex="1" parent="594">
                    <mxGeometry x="100" width="20" height="50" as="geometry"/>
                </mxCell>
                <mxCell id="601" value="6" style="rounded=0;whiteSpace=wrap;html=1;" vertex="1" parent="594">
                    <mxGeometry x="120" width="20" height="50" as="geometry"/>
                </mxCell>
                <mxCell id="602" value="7" style="rounded=0;whiteSpace=wrap;html=1;" vertex="1" parent="594">
                    <mxGeometry x="140" width="20" height="50" as="geometry"/>
                </mxCell>
                <mxCell id="603" value="8" style="rounded=0;whiteSpace=wrap;html=1;" vertex="1" parent="594">
                    <mxGeometry x="160" width="20" height="50" as="geometry"/>
                </mxCell>
                <mxCell id="604" value="9" style="rounded=0;whiteSpace=wrap;html=1;" vertex="1" parent="594">
                    <mxGeometry x="180" width="20" height="50" as="geometry"/>
                </mxCell>
                <mxCell id="605" value="10" style="rounded=0;whiteSpace=wrap;html=1;" vertex="1" parent="594">
                    <mxGeometry x="200" width="20" height="50" as="geometry"/>
                </mxCell>
                <mxCell id="606" value="11" style="rounded=0;whiteSpace=wrap;html=1;" vertex="1" parent="594">
                    <mxGeometry x="220" width="20" height="50" as="geometry"/>
                </mxCell>
                <mxCell id="607" value="12" style="rounded=0;whiteSpace=wrap;html=1;" vertex="1" parent="594">
                    <mxGeometry x="240" width="20" height="50" as="geometry"/>
                </mxCell>
                <mxCell id="608" value="13" style="rounded=0;whiteSpace=wrap;html=1;" vertex="1" parent="594">
                    <mxGeometry x="260" width="20" height="50" as="geometry"/>
                </mxCell>
                <mxCell id="609" value="14" style="rounded=0;whiteSpace=wrap;html=1;" vertex="1" parent="594">
                    <mxGeometry x="280" width="20" height="50" as="geometry"/>
                </mxCell>
                <mxCell id="610" value="15" style="rounded=0;whiteSpace=wrap;html=1;" vertex="1" parent="594">
                    <mxGeometry x="300" width="20" height="50" as="geometry"/>
                </mxCell>
                <mxCell id="611" value="128 bit (16byte)" style="text;html=1;strokeColor=none;fillColor=none;align=center;verticalAlign=middle;whiteSpace=wrap;rounded=0;" vertex="1" parent="593">
                    <mxGeometry x="330" y="10" width="60" height="30" as="geometry"/>
                </mxCell>
                <mxCell id="612" value="" style="group" vertex="1" connectable="0" parent="535">
                    <mxGeometry x="360" y="280" width="390" height="50" as="geometry"/>
                </mxCell>
                <mxCell id="613" value="" style="group" vertex="1" connectable="0" parent="612">
                    <mxGeometry width="320" height="50" as="geometry"/>
                </mxCell>
                <mxCell id="614" value="0" style="rounded=0;whiteSpace=wrap;html=1;" vertex="1" parent="613">
                    <mxGeometry width="20" height="50" as="geometry"/>
                </mxCell>
                <mxCell id="615" value="1" style="rounded=0;whiteSpace=wrap;html=1;" vertex="1" parent="613">
                    <mxGeometry x="20" width="20" height="50" as="geometry"/>
                </mxCell>
                <mxCell id="616" value="2" style="rounded=0;whiteSpace=wrap;html=1;" vertex="1" parent="613">
                    <mxGeometry x="40" width="20" height="50" as="geometry"/>
                </mxCell>
                <mxCell id="617" value="3" style="rounded=0;whiteSpace=wrap;html=1;" vertex="1" parent="613">
                    <mxGeometry x="60" width="20" height="50" as="geometry"/>
                </mxCell>
                <mxCell id="618" value="4" style="rounded=0;whiteSpace=wrap;html=1;" vertex="1" parent="613">
                    <mxGeometry x="80" width="20" height="50" as="geometry"/>
                </mxCell>
                <mxCell id="619" value="5" style="rounded=0;whiteSpace=wrap;html=1;" vertex="1" parent="613">
                    <mxGeometry x="100" width="20" height="50" as="geometry"/>
                </mxCell>
                <mxCell id="620" value="6" style="rounded=0;whiteSpace=wrap;html=1;" vertex="1" parent="613">
                    <mxGeometry x="120" width="20" height="50" as="geometry"/>
                </mxCell>
                <mxCell id="621" value="7" style="rounded=0;whiteSpace=wrap;html=1;" vertex="1" parent="613">
                    <mxGeometry x="140" width="20" height="50" as="geometry"/>
                </mxCell>
                <mxCell id="622" value="8" style="rounded=0;whiteSpace=wrap;html=1;" vertex="1" parent="613">
                    <mxGeometry x="160" width="20" height="50" as="geometry"/>
                </mxCell>
                <mxCell id="623" value="9" style="rounded=0;whiteSpace=wrap;html=1;" vertex="1" parent="613">
                    <mxGeometry x="180" width="20" height="50" as="geometry"/>
                </mxCell>
                <mxCell id="624" value="10" style="rounded=0;whiteSpace=wrap;html=1;" vertex="1" parent="613">
                    <mxGeometry x="200" width="20" height="50" as="geometry"/>
                </mxCell>
                <mxCell id="625" value="11" style="rounded=0;whiteSpace=wrap;html=1;" vertex="1" parent="613">
                    <mxGeometry x="220" width="20" height="50" as="geometry"/>
                </mxCell>
                <mxCell id="626" value="12" style="rounded=0;whiteSpace=wrap;html=1;" vertex="1" parent="613">
                    <mxGeometry x="240" width="20" height="50" as="geometry"/>
                </mxCell>
                <mxCell id="627" value="13" style="rounded=0;whiteSpace=wrap;html=1;" vertex="1" parent="613">
                    <mxGeometry x="260" width="20" height="50" as="geometry"/>
                </mxCell>
                <mxCell id="628" value="14" style="rounded=0;whiteSpace=wrap;html=1;" vertex="1" parent="613">
                    <mxGeometry x="280" width="20" height="50" as="geometry"/>
                </mxCell>
                <mxCell id="629" value="15" style="rounded=0;whiteSpace=wrap;html=1;" vertex="1" parent="613">
                    <mxGeometry x="300" width="20" height="50" as="geometry"/>
                </mxCell>
                <mxCell id="630" value="128 bit (16byte)" style="text;html=1;strokeColor=none;fillColor=none;align=center;verticalAlign=middle;whiteSpace=wrap;rounded=0;" vertex="1" parent="612">
                    <mxGeometry x="330" y="10" width="60" height="30" as="geometry"/>
                </mxCell>
                <mxCell id="631" value="" style="group" vertex="1" connectable="0" parent="535">
                    <mxGeometry x="360" y="350" width="390" height="50" as="geometry"/>
                </mxCell>
                <mxCell id="632" value="" style="group" vertex="1" connectable="0" parent="631">
                    <mxGeometry width="320" height="50" as="geometry"/>
                </mxCell>
                <mxCell id="633" value="0" style="rounded=0;whiteSpace=wrap;html=1;" vertex="1" parent="632">
                    <mxGeometry width="20" height="50" as="geometry"/>
                </mxCell>
                <mxCell id="634" value="1" style="rounded=0;whiteSpace=wrap;html=1;" vertex="1" parent="632">
                    <mxGeometry x="20" width="20" height="50" as="geometry"/>
                </mxCell>
                <mxCell id="635" value="2" style="rounded=0;whiteSpace=wrap;html=1;" vertex="1" parent="632">
                    <mxGeometry x="40" width="20" height="50" as="geometry"/>
                </mxCell>
                <mxCell id="636" value="3" style="rounded=0;whiteSpace=wrap;html=1;" vertex="1" parent="632">
                    <mxGeometry x="60" width="20" height="50" as="geometry"/>
                </mxCell>
                <mxCell id="637" value="4" style="rounded=0;whiteSpace=wrap;html=1;" vertex="1" parent="632">
                    <mxGeometry x="80" width="20" height="50" as="geometry"/>
                </mxCell>
                <mxCell id="638" value="5" style="rounded=0;whiteSpace=wrap;html=1;" vertex="1" parent="632">
                    <mxGeometry x="100" width="20" height="50" as="geometry"/>
                </mxCell>
                <mxCell id="639" value="6" style="rounded=0;whiteSpace=wrap;html=1;" vertex="1" parent="632">
                    <mxGeometry x="120" width="20" height="50" as="geometry"/>
                </mxCell>
                <mxCell id="640" value="7" style="rounded=0;whiteSpace=wrap;html=1;" vertex="1" parent="632">
                    <mxGeometry x="140" width="20" height="50" as="geometry"/>
                </mxCell>
                <mxCell id="641" value="8" style="rounded=0;whiteSpace=wrap;html=1;" vertex="1" parent="632">
                    <mxGeometry x="160" width="20" height="50" as="geometry"/>
                </mxCell>
                <mxCell id="642" value="9" style="rounded=0;whiteSpace=wrap;html=1;" vertex="1" parent="632">
                    <mxGeometry x="180" width="20" height="50" as="geometry"/>
                </mxCell>
                <mxCell id="643" value="10" style="rounded=0;whiteSpace=wrap;html=1;" vertex="1" parent="632">
                    <mxGeometry x="200" width="20" height="50" as="geometry"/>
                </mxCell>
                <mxCell id="644" value="11" style="rounded=0;whiteSpace=wrap;html=1;" vertex="1" parent="632">
                    <mxGeometry x="220" width="20" height="50" as="geometry"/>
                </mxCell>
                <mxCell id="645" value="12" style="rounded=0;whiteSpace=wrap;html=1;" vertex="1" parent="632">
                    <mxGeometry x="240" width="20" height="50" as="geometry"/>
                </mxCell>
                <mxCell id="646" value="13" style="rounded=0;whiteSpace=wrap;html=1;" vertex="1" parent="632">
                    <mxGeometry x="260" width="20" height="50" as="geometry"/>
                </mxCell>
                <mxCell id="647" value="14" style="rounded=0;whiteSpace=wrap;html=1;" vertex="1" parent="632">
                    <mxGeometry x="280" width="20" height="50" as="geometry"/>
                </mxCell>
                <mxCell id="648" value="15" style="rounded=0;whiteSpace=wrap;html=1;" vertex="1" parent="632">
                    <mxGeometry x="300" width="20" height="50" as="geometry"/>
                </mxCell>
                <mxCell id="649" value="128 bit (16byte)" style="text;html=1;strokeColor=none;fillColor=none;align=center;verticalAlign=middle;whiteSpace=wrap;rounded=0;" vertex="1" parent="631">
                    <mxGeometry x="330" y="10" width="60" height="30" as="geometry"/>
                </mxCell>
                <mxCell id="650" value="sram_addr&lt;br&gt;0" style="text;html=1;strokeColor=none;fillColor=none;align=center;verticalAlign=middle;whiteSpace=wrap;rounded=0;" vertex="1" parent="535">
                    <mxGeometry x="760" y="10" width="60" height="30" as="geometry"/>
                </mxCell>
                <mxCell id="651" value="sram_addr&lt;br&gt;1" style="text;html=1;strokeColor=none;fillColor=none;align=center;verticalAlign=middle;whiteSpace=wrap;rounded=0;" vertex="1" parent="535">
                    <mxGeometry x="760" y="80" width="60" height="30" as="geometry"/>
                </mxCell>
                <mxCell id="652" value="sram_addr&lt;br&gt;2" style="text;html=1;strokeColor=none;fillColor=none;align=center;verticalAlign=middle;whiteSpace=wrap;rounded=0;" vertex="1" parent="535">
                    <mxGeometry x="760" y="150" width="60" height="30" as="geometry"/>
                </mxCell>
                <mxCell id="653" value="sram_addr&lt;br&gt;3" style="text;html=1;strokeColor=none;fillColor=none;align=center;verticalAlign=middle;whiteSpace=wrap;rounded=0;" vertex="1" parent="535">
                    <mxGeometry x="760" y="220" width="60" height="30" as="geometry"/>
                </mxCell>
                <mxCell id="654" value="sram_addr&lt;br&gt;4" style="text;html=1;strokeColor=none;fillColor=none;align=center;verticalAlign=middle;whiteSpace=wrap;rounded=0;" vertex="1" parent="535">
                    <mxGeometry x="760" y="290" width="60" height="30" as="geometry"/>
                </mxCell>
                <mxCell id="655" value="sram_addr&lt;br&gt;5" style="text;html=1;strokeColor=none;fillColor=none;align=center;verticalAlign=middle;whiteSpace=wrap;rounded=0;" vertex="1" parent="535">
                    <mxGeometry x="760" y="360" width="60" height="30" as="geometry"/>
                </mxCell>
                <mxCell id="656" value="" style="group" vertex="1" connectable="0" parent="535">
                    <mxGeometry x="360" y="420" width="460" height="50" as="geometry"/>
                </mxCell>
                <mxCell id="657" value="" style="group" vertex="1" connectable="0" parent="656">
                    <mxGeometry width="390" height="50" as="geometry"/>
                </mxCell>
                <mxCell id="658" value="" style="group" vertex="1" connectable="0" parent="657">
                    <mxGeometry width="320" height="50" as="geometry"/>
                </mxCell>
                <mxCell id="659" value="0" style="rounded=0;whiteSpace=wrap;html=1;" vertex="1" parent="658">
                    <mxGeometry width="20" height="50" as="geometry"/>
                </mxCell>
                <mxCell id="660" value="1" style="rounded=0;whiteSpace=wrap;html=1;" vertex="1" parent="658">
                    <mxGeometry x="20" width="20" height="50" as="geometry"/>
                </mxCell>
                <mxCell id="661" value="2" style="rounded=0;whiteSpace=wrap;html=1;" vertex="1" parent="658">
                    <mxGeometry x="40" width="20" height="50" as="geometry"/>
                </mxCell>
                <mxCell id="662" value="3" style="rounded=0;whiteSpace=wrap;html=1;" vertex="1" parent="658">
                    <mxGeometry x="60" width="20" height="50" as="geometry"/>
                </mxCell>
                <mxCell id="663" value="4" style="rounded=0;whiteSpace=wrap;html=1;" vertex="1" parent="658">
                    <mxGeometry x="80" width="20" height="50" as="geometry"/>
                </mxCell>
                <mxCell id="664" value="5" style="rounded=0;whiteSpace=wrap;html=1;" vertex="1" parent="658">
                    <mxGeometry x="100" width="20" height="50" as="geometry"/>
                </mxCell>
                <mxCell id="665" value="6" style="rounded=0;whiteSpace=wrap;html=1;" vertex="1" parent="658">
                    <mxGeometry x="120" width="20" height="50" as="geometry"/>
                </mxCell>
                <mxCell id="666" value="7" style="rounded=0;whiteSpace=wrap;html=1;" vertex="1" parent="658">
                    <mxGeometry x="140" width="20" height="50" as="geometry"/>
                </mxCell>
                <mxCell id="667" value="8" style="rounded=0;whiteSpace=wrap;html=1;" vertex="1" parent="658">
                    <mxGeometry x="160" width="20" height="50" as="geometry"/>
                </mxCell>
                <mxCell id="668" value="9" style="rounded=0;whiteSpace=wrap;html=1;" vertex="1" parent="658">
                    <mxGeometry x="180" width="20" height="50" as="geometry"/>
                </mxCell>
                <mxCell id="669" value="10" style="rounded=0;whiteSpace=wrap;html=1;" vertex="1" parent="658">
                    <mxGeometry x="200" width="20" height="50" as="geometry"/>
                </mxCell>
                <mxCell id="670" value="11" style="rounded=0;whiteSpace=wrap;html=1;" vertex="1" parent="658">
                    <mxGeometry x="220" width="20" height="50" as="geometry"/>
                </mxCell>
                <mxCell id="671" value="12" style="rounded=0;whiteSpace=wrap;html=1;" vertex="1" parent="658">
                    <mxGeometry x="240" width="20" height="50" as="geometry"/>
                </mxCell>
                <mxCell id="672" value="13" style="rounded=0;whiteSpace=wrap;html=1;" vertex="1" parent="658">
                    <mxGeometry x="260" width="20" height="50" as="geometry"/>
                </mxCell>
                <mxCell id="673" value="14" style="rounded=0;whiteSpace=wrap;html=1;" vertex="1" parent="658">
                    <mxGeometry x="280" width="20" height="50" as="geometry"/>
                </mxCell>
                <mxCell id="674" value="15" style="rounded=0;whiteSpace=wrap;html=1;" vertex="1" parent="658">
                    <mxGeometry x="300" width="20" height="50" as="geometry"/>
                </mxCell>
                <mxCell id="675" value="128 bit (16byte)" style="text;html=1;strokeColor=none;fillColor=none;align=center;verticalAlign=middle;whiteSpace=wrap;rounded=0;" vertex="1" parent="657">
                    <mxGeometry x="330" y="10" width="60" height="30" as="geometry"/>
                </mxCell>
                <mxCell id="676" value="sram_addr&lt;br&gt;6" style="text;html=1;strokeColor=none;fillColor=none;align=center;verticalAlign=middle;whiteSpace=wrap;rounded=0;" vertex="1" parent="656">
                    <mxGeometry x="400" y="10" width="60" height="30" as="geometry"/>
                </mxCell>
                <mxCell id="677" value="" style="group" vertex="1" connectable="0" parent="535">
                    <mxGeometry x="360" y="490" width="460" height="50" as="geometry"/>
                </mxCell>
                <mxCell id="678" value="" style="group" vertex="1" connectable="0" parent="677">
                    <mxGeometry width="390" height="50" as="geometry"/>
                </mxCell>
                <mxCell id="679" value="" style="group" vertex="1" connectable="0" parent="678">
                    <mxGeometry width="320" height="50" as="geometry"/>
                </mxCell>
                <mxCell id="680" value="0" style="rounded=0;whiteSpace=wrap;html=1;" vertex="1" parent="679">
                    <mxGeometry width="20" height="50" as="geometry"/>
                </mxCell>
                <mxCell id="681" value="1" style="rounded=0;whiteSpace=wrap;html=1;" vertex="1" parent="679">
                    <mxGeometry x="20" width="20" height="50" as="geometry"/>
                </mxCell>
                <mxCell id="682" value="2" style="rounded=0;whiteSpace=wrap;html=1;" vertex="1" parent="679">
                    <mxGeometry x="40" width="20" height="50" as="geometry"/>
                </mxCell>
                <mxCell id="683" value="3" style="rounded=0;whiteSpace=wrap;html=1;" vertex="1" parent="679">
                    <mxGeometry x="60" width="20" height="50" as="geometry"/>
                </mxCell>
                <mxCell id="684" value="4" style="rounded=0;whiteSpace=wrap;html=1;" vertex="1" parent="679">
                    <mxGeometry x="80" width="20" height="50" as="geometry"/>
                </mxCell>
                <mxCell id="685" value="5" style="rounded=0;whiteSpace=wrap;html=1;" vertex="1" parent="679">
                    <mxGeometry x="100" width="20" height="50" as="geometry"/>
                </mxCell>
                <mxCell id="686" value="6" style="rounded=0;whiteSpace=wrap;html=1;" vertex="1" parent="679">
                    <mxGeometry x="120" width="20" height="50" as="geometry"/>
                </mxCell>
                <mxCell id="687" value="7" style="rounded=0;whiteSpace=wrap;html=1;" vertex="1" parent="679">
                    <mxGeometry x="140" width="20" height="50" as="geometry"/>
                </mxCell>
                <mxCell id="688" value="8" style="rounded=0;whiteSpace=wrap;html=1;" vertex="1" parent="679">
                    <mxGeometry x="160" width="20" height="50" as="geometry"/>
                </mxCell>
                <mxCell id="689" value="9" style="rounded=0;whiteSpace=wrap;html=1;" vertex="1" parent="679">
                    <mxGeometry x="180" width="20" height="50" as="geometry"/>
                </mxCell>
                <mxCell id="690" value="10" style="rounded=0;whiteSpace=wrap;html=1;" vertex="1" parent="679">
                    <mxGeometry x="200" width="20" height="50" as="geometry"/>
                </mxCell>
                <mxCell id="691" value="11" style="rounded=0;whiteSpace=wrap;html=1;" vertex="1" parent="679">
                    <mxGeometry x="220" width="20" height="50" as="geometry"/>
                </mxCell>
                <mxCell id="692" value="12" style="rounded=0;whiteSpace=wrap;html=1;fillColor=#f8cecc;strokeColor=#b85450;" vertex="1" parent="679">
                    <mxGeometry x="240" width="20" height="50" as="geometry"/>
                </mxCell>
                <mxCell id="693" value="13" style="rounded=0;whiteSpace=wrap;html=1;" vertex="1" parent="679">
                    <mxGeometry x="260" width="20" height="50" as="geometry"/>
                </mxCell>
                <mxCell id="694" value="14" style="rounded=0;whiteSpace=wrap;html=1;" vertex="1" parent="679">
                    <mxGeometry x="280" width="20" height="50" as="geometry"/>
                </mxCell>
                <mxCell id="695" value="15" style="rounded=0;whiteSpace=wrap;html=1;" vertex="1" parent="679">
                    <mxGeometry x="300" width="20" height="50" as="geometry"/>
                </mxCell>
                <mxCell id="696" value="128 bit (16byte)" style="text;html=1;strokeColor=none;fillColor=none;align=center;verticalAlign=middle;whiteSpace=wrap;rounded=0;" vertex="1" parent="678">
                    <mxGeometry x="330" y="10" width="60" height="30" as="geometry"/>
                </mxCell>
                <mxCell id="697" value="sram_addr&lt;br&gt;7" style="text;html=1;strokeColor=none;fillColor=none;align=center;verticalAlign=middle;whiteSpace=wrap;rounded=0;" vertex="1" parent="677">
                    <mxGeometry x="400" y="10" width="60" height="30" as="geometry"/>
                </mxCell>
                <mxCell id="698" value="" style="shape=curlyBracket;whiteSpace=wrap;html=1;rounded=1;size=0.3;" vertex="1" parent="535">
                    <mxGeometry x="330" y="5" width="20" height="525" as="geometry"/>
                </mxCell>
                <mxCell id="699" value="CACHE block(128Byte)" style="shape=ext;double=1;rounded=0;whiteSpace=wrap;html=1;fontSize=17;" vertex="1" parent="535">
                    <mxGeometry y="250" width="280" height="50" as="geometry"/>
                </mxCell>
                <mxCell id="700" value="" style="endArrow=classic;html=1;fontSize=17;entryX=0;entryY=1;entryDx=0;entryDy=0;" edge="1" parent="1" target="692">
                    <mxGeometry width="50" height="50" relative="1" as="geometry">
                        <mxPoint x="830" y="3280" as="sourcePoint"/>
                        <mxPoint x="810" y="3330" as="targetPoint"/>
                    </mxGeometry>
                </mxCell>
                <mxCell id="701" value="cache line 块内地址:&lt;br&gt;&amp;nbsp;111 1100 (124),对应的位置" style="text;html=1;strokeColor=none;fillColor=none;align=center;verticalAlign=middle;whiteSpace=wrap;rounded=0;fontSize=17;" vertex="1" parent="1">
                    <mxGeometry x="720" y="3290" width="220" height="30" as="geometry"/>
                </mxCell>
            </root>
        </mxGraphModel>
    </diagram>
</mxfile>